<?xml version="1.0" standalone="no"?>
<!DOCTYPE svg PUBLIC "-//W3C//DTD SVG 20010904//EN"
 "http://www.w3.org/TR/2001/REC-SVG-20010904/DTD/svg10.dtd">
<svg version="1.0" xmlns="http://www.w3.org/2000/svg"
 width="1054.000000pt" height="1054.000000pt" viewBox="0 0 1054.000000 1054.000000"
 preserveAspectRatio="xMidYMid meet">
<metadata>
Created by potrace 1.11, written by Peter Selinger 2001-2013
</metadata>
<g transform="translate(0.000000,1054.000000) scale(0.100000,-0.100000)"
fill="#000000" stroke="none">
<path d="M10440 10530 c0 -5 6 -10 14 -10 8 0 18 5 21 10 3 6 -3 10 -14 10
-12 0 -21 -4 -21 -10z"/>
<path d="M10342 10508 c-5 -7 -15 -31 -21 -53 -12 -46 -44 -78 -85 -85 -40 -7
-55 -33 -33 -58 9 -10 17 -32 17 -48 0 -24 8 -33 41 -51 43 -23 59 -23 59 3 0
19 13 18 41 -4 26 -22 21 -52 -9 -52 -10 0 -25 -12 -33 -26 -13 -25 -12 -28 8
-41 18 -12 21 -19 12 -35 -7 -13 -16 -17 -29 -13 -12 4 -27 -1 -41 -13 -25
-24 -11 -36 26 -22 35 13 103 2 115 -20 5 -9 6 -27 3 -39 -5 -20 -3 -21 46
-18 28 3 51 0 51 -4 0 -5 5 -9 11 -9 6 0 10 20 9 48 -1 26 2 79 6 119 l7 72
-24 -5 c-17 -4 -20 -3 -11 4 11 7 10 16 -4 45 -10 21 -22 38 -28 38 -6 1 -18
2 -26 3 -9 0 -16 14 -18 34 -3 31 -2 32 24 26 21 -5 30 -2 45 17 l18 24 10
-25 c9 -24 10 -24 10 8 1 18 -5 42 -11 53 -10 17 -10 23 0 26 15 6 17 103 2
103 -5 0 -10 -13 -10 -29 0 -45 -19 -48 -56 -9 -24 27 -35 33 -44 24 -8 -8
-15 -7 -24 7 -15 20 -39 22 -54 5z m128 -398 c11 -30 19 -58 20 -61 0 -3 -20
-6 -45 -6 -47 0 -60 11 -24 20 17 5 19 9 10 25 -12 23 -3 84 11 80 5 -2 18
-28 28 -58z"/>
<path d="M6714 9676 c-11 -18 -19 -55 -22 -104 -4 -66 -9 -82 -35 -114 -16
-21 -34 -35 -39 -32 -5 3 -9 0 -7 -7 3 -29 -2 -37 -31 -49 -17 -7 -44 -10 -65
-6 -40 8 -49 -10 -10 -20 26 -6 35 -24 13 -24 -7 -1 -50 -3 -95 -6 -52 -4 -83
-2 -83 4 0 18 -29 21 -77 8 -70 -20 -122 -26 -128 -15 -9 14 -25 11 -25 -6 0
-8 5 -15 10 -15 18 0 10 -22 -16 -47 -20 -18 -29 -21 -34 -12 -5 6 -22 13 -38
14 -38 3 -105 65 -96 89 4 10 0 18 -12 23 -26 9 -32 20 -40 77 -6 47 -7 49
-21 30 -11 -14 -17 -16 -20 -6 -3 7 -23 31 -44 53 -22 22 -37 44 -34 50 10 15
-4 47 -23 53 -9 3 -22 16 -27 28 -16 37 -42 33 -90 -15 -42 -43 -50 -62 -19
-50 20 7 54 -25 54 -51 0 -27 -89 -122 -132 -141 -18 -8 -44 -26 -57 -40 -13
-14 -27 -25 -32 -25 -14 0 -39 56 -39 88 0 45 -10 45 -42 -3 -33 -50 -41 -52
-174 -60 -64 -4 -105 -1 -135 8 -59 19 -274 17 -309 -3 -14 -8 -54 -15 -90
-17 -36 -1 -108 -6 -160 -10 -52 -4 -108 -6 -124 -4 -22 2 -27 -1 -23 -12 4
-11 -4 -17 -28 -21 -18 -4 -38 -13 -45 -21 -7 -8 -22 -15 -34 -15 -22 0 -121
-32 -132 -42 -3 -3 11 -12 32 -18 42 -14 178 -7 219 12 33 15 41 44 20 69 -15
16 -16 19 -3 24 8 3 33 0 55 -8 23 -8 47 -11 54 -7 8 4 66 10 129 13 63 3 123
8 132 12 9 4 33 2 51 -4 19 -7 95 -13 169 -16 179 -5 228 -12 228 -35 0 -10
13 -23 30 -30 26 -11 33 -10 49 4 26 24 48 20 63 -12 12 -23 12 -33 1 -60 -16
-39 -48 -49 -109 -32 -28 8 -73 11 -119 7 -69 -5 -75 -4 -75 14 0 10 -6 19
-13 19 -7 0 -22 6 -32 14 -17 12 -17 16 -6 30 8 9 21 14 29 11 33 -13 30 8 -5
27 -33 17 -51 19 -127 14 -94 -5 -103 -10 -116 -61 -4 -15 -16 -21 -44 -23
-45 -4 -69 13 -62 44 10 37 -14 45 -111 41 -66 -3 -88 -8 -89 -18 -1 -8 -2
-20 -3 -26 0 -7 -8 -13 -16 -13 -8 0 -15 -4 -15 -10 0 -12 27 -12 55 0 16 6
29 -1 62 -32 28 -28 45 -38 55 -32 32 21 82 33 99 23 10 -5 36 -9 58 -9 81 0
94 -21 24 -37 -93 -22 -159 -25 -173 -8 -9 11 -16 12 -26 4 -7 -6 -26 -8 -41
-5 -15 3 -46 0 -68 -8 -34 -12 -42 -20 -56 -60 -19 -58 -52 -93 -98 -107 -52
-15 -224 -32 -311 -30 -229 5 -243 4 -300 -23 -30 -14 -64 -26 -75 -26 -11 0
-34 -8 -51 -19 -21 -13 -56 -20 -117 -23 -58 -3 -92 -9 -104 -20 -10 -8 -67
-25 -128 -37 -60 -12 -131 -27 -156 -32 -53 -11 -171 -61 -239 -101 -25 -15
-74 -36 -110 -47 -62 -20 -87 -38 -155 -114 -14 -15 -25 -32 -25 -36 0 -10
-25 -21 -48 -21 -9 0 -29 -6 -43 -14 -14 -7 -50 -21 -81 -30 -65 -21 -115 -57
-103 -75 5 -10 23 -12 65 -7 37 4 61 3 65 -4 3 -5 19 -10 35 -10 32 0 76 -16
102 -38 20 -17 122 -27 174 -18 28 6 34 10 23 17 -10 6 -10 9 -2 9 7 0 25 -13
40 -28 36 -36 74 -52 124 -52 21 0 47 -5 57 -11 14 -9 42 -8 113 1 149 20 247
22 344 7 70 -10 91 -17 93 -30 5 -27 -42 -40 -100 -27 -27 5 -61 10 -76 10
l-27 0 31 -19 c17 -10 45 -22 62 -26 18 -3 34 -11 37 -15 3 -5 17 -5 32 1 25
9 375 11 401 1 6 -2 12 -10 12 -18 0 -12 -38 -26 -95 -36 -13 -2 -21 -14 -26
-36 -6 -29 -3 -35 17 -44 34 -16 109 2 108 25 -1 12 6 17 28 17 37 0 71 18 62
32 -5 8 -1 9 10 5 10 -4 24 -7 32 -7 8 0 14 -6 14 -14 0 -13 69 -24 195 -30
48 -3 71 -10 125 -41 30 -18 80 -19 115 -3 20 9 44 8 118 -7 102 -21 308 -28
347 -13 23 10 24 11 5 18 -19 7 -19 7 0 17 11 6 49 15 85 22 52 8 76 8 118 -3
29 -8 58 -19 65 -24 7 -5 24 -12 39 -16 15 -3 32 -15 38 -26 8 -14 26 -21 70
-26 33 -4 60 -10 60 -14 0 -4 -28 -10 -62 -14 -70 -7 -76 -10 -58 -31 10 -12
8 -16 -14 -24 -14 -6 -48 -13 -76 -17 -48 -6 -71 -24 -30 -24 28 0 25 -29 -5
-40 -14 -5 -25 -12 -25 -15 0 -3 38 -5 85 -5 83 0 85 1 85 24 0 16 7 26 23 30
37 10 197 7 197 -4 0 -5 -15 -10 -34 -10 -44 0 -96 -19 -96 -34 0 -16 23 -35
76 -63 37 -21 42 -21 70 -7 16 9 47 17 69 19 21 1 41 8 43 14 7 20 113 13 147
-9 17 -11 36 -20 43 -20 6 0 20 -8 31 -19 16 -16 35 -18 132 -19 173 -1 213
13 59 20 -140 7 -160 12 -160 38 0 23 14 27 125 36 50 3 96 11 104 18 8 6 46
14 85 18 39 4 90 10 114 14 58 8 138 -4 123 -19 -15 -15 -14 -47 2 -48 6 -1
22 0 33 0 12 1 49 -5 82 -13 33 -9 78 -16 99 -16 22 0 75 -9 118 -20 83 -21
123 -24 223 -14 42 4 62 2 62 -5 0 -7 -22 -11 -55 -11 -53 0 -69 -10 -42 -27
13 -9 60 -11 280 -12 94 0 147 -4 147 -11 0 -5 6 -10 14 -10 8 0 13 -8 12 -17
-1 -16 10 -18 79 -21 73 -2 82 0 109 23 16 14 38 25 49 25 11 0 28 7 37 15 22
20 51 10 114 -38 38 -30 42 -36 25 -40 -10 -3 -19 -12 -19 -20 0 -11 16 -17
53 -22 66 -9 96 -23 76 -36 -9 -7 -2 -8 22 -3 30 5 40 2 57 -16 16 -18 33 -22
93 -24 41 -1 75 -7 77 -12 2 -5 -5 -10 -15 -12 -10 -2 -47 -10 -82 -19 -51
-14 -59 -18 -42 -24 39 -15 24 -32 -21 -25 -49 8 -58 13 -58 31 0 13 -29 14
-191 9 -130 -5 -190 -3 -186 3 4 6 26 14 49 17 24 4 50 11 58 16 22 14 -100
13 -156 -1 -39 -10 -48 -9 -62 5 -16 16 -16 18 6 36 12 10 22 22 22 27 0 13
-58 35 -71 27 -6 -3 -16 0 -21 7 -7 11 -11 11 -15 2 -8 -21 -31 -15 -35 8 -2
16 -15 25 -46 34 -23 7 -54 20 -67 29 -17 11 -46 16 -97 15 -99 -1 -123 -9
-123 -39 0 -30 26 -38 48 -15 26 26 119 20 188 -12 32 -16 59 -31 59 -35 0
-13 -49 -9 -87 7 -40 17 -153 20 -153 5 0 -16 -46 -12 -102 10 -29 11 -63 20
-76 20 -12 0 -30 4 -40 9 -38 20 -147 27 -280 18 l-137 -9 -22 28 c-19 25 -24
27 -45 16 -14 -8 -56 -12 -103 -11 -85 2 -152 -8 -161 -22 -3 -5 -22 -9 -42
-9 -20 0 -43 -4 -51 -9 -25 -16 21 -21 99 -11 41 5 92 10 114 10 33 0 37 -2
26 -15 -11 -13 -6 -15 38 -15 28 0 62 -4 75 -9 18 -7 30 -6 43 4 11 8 29 11
40 9 12 -3 24 -2 27 3 4 6 29 6 59 2 29 -4 76 -8 104 -8 34 -1 56 -6 65 -17
13 -16 46 -16 140 1 27 5 47 1 78 -14 22 -12 41 -25 41 -30 0 -4 -15 -12 -32
-17 -19 -6 -34 -17 -36 -27 -6 -32 17 -47 74 -47 41 0 54 -4 54 -15 0 -13 22
-15 133 -15 95 -1 139 -5 157 -15 37 -21 109 -19 134 4 12 10 35 23 52 29 26
8 37 6 63 -10 36 -23 39 -34 11 -41 -11 -3 -20 -13 -20 -22 0 -15 6 -17 43
-11 23 4 76 9 118 13 71 5 76 4 81 -15 5 -19 13 -21 101 -21 77 0 103 -4 136
-22 42 -21 53 -39 26 -39 -9 0 -18 7 -21 15 -8 21 -83 20 -113 -1 -27 -20 -14
-34 33 -34 15 0 41 -11 58 -25 16 -14 42 -25 56 -25 50 0 101 -20 107 -41 6
-17 12 -20 33 -14 64 15 87 17 158 10 58 -5 74 -10 72 -21 -2 -11 -26 -15
-105 -17 -64 -2 -107 -7 -115 -15 -7 -7 -34 -12 -60 -12 -42 0 -48 -3 -48 -21
0 -20 -3 -21 -52 -13 -63 10 -166 14 -423 18 -104 1 -197 5 -205 9 -8 3 -35 8
-60 10 -38 3 -36 4 16 5 81 3 154 13 154 22 0 13 -80 22 -280 31 -107 5 -235
12 -284 15 -69 4 -104 1 -150 -12 -48 -14 -93 -17 -208 -16 -92 1 -148 -2
-148 -8 0 -9 22 -11 170 -16 30 0 68 -6 83 -13 16 -6 79 -11 140 -11 120 0
142 -7 142 -42 0 -21 6 -24 60 -29 33 -4 99 -7 147 -8 48 -1 89 -5 92 -10 12
-19 -270 -28 -321 -11 -43 16 -165 9 -154 -8 5 -9 50 -14 152 -18 79 -2 160
-5 179 -6 19 -1 80 0 135 1 55 2 132 0 170 -4 63 -6 73 -5 98 15 33 26 34 35
5 45 -19 6 -14 9 27 15 67 11 143 12 149 2 2 -4 -10 -6 -27 -4 -41 4 -112 -21
-112 -39 0 -11 49 -15 270 -21 338 -9 655 -28 655 -40 0 -10 28 -9 -245 -14
-181 -4 -243 -8 -255 -18 -9 -9 -55 -16 -120 -20 -58 -4 -157 -11 -221 -17
-105 -10 -120 -9 -143 7 -22 13 -41 16 -99 12 -40 -3 -121 -2 -182 3 -60 4
-180 13 -265 19 -108 8 -159 15 -170 25 -22 20 -104 20 -120 0 -8 -10 -30 -15
-65 -15 -29 0 -72 7 -95 15 -47 17 -126 20 -134 6 -9 -14 16 -20 137 -32 62
-6 141 -18 177 -26 36 -8 88 -14 115 -13 28 0 62 -3 75 -8 l25 -10 -27 -7
c-16 -4 -28 -14 -28 -22 0 -14 13 -15 87 -9 55 5 91 12 97 21 14 18 209 33
228 18 7 -6 75 -13 151 -16 76 -3 142 -9 149 -13 18 -11 -16 -24 -84 -30 -35
-3 -72 -9 -83 -14 -11 -4 -73 -12 -137 -17 -65 -5 -121 -12 -124 -16 -4 -4 5
-20 20 -36 35 -37 86 -47 128 -27 38 20 65 20 98 1 14 -8 37 -14 51 -15 14 0
39 -7 55 -14 34 -17 198 -26 202 -11 4 13 -97 34 -168 35 -42 0 -51 3 -37 11
9 5 17 18 17 29 0 20 11 25 84 35 36 5 45 10 37 18 -28 28 -12 37 68 37 44 0
92 5 107 10 30 12 44 6 26 -12 -15 -15 -15 -38 -1 -38 7 0 18 8 25 18 11 14
28 17 119 15 59 -1 110 -4 113 -7 13 -14 -14 -19 -123 -24 -111 -5 -115 -6
-115 -27 0 -31 60 -45 165 -38 67 4 84 9 103 29 22 23 27 24 188 24 99 0 173
-4 185 -11 20 -10 20 -11 2 -24 -14 -12 -15 -15 -3 -16 8 -1 21 -1 28 0 8 1
52 -10 98 -24 108 -34 107 -51 -2 -47 -102 3 -125 8 -118 26 8 20 -71 41 -106
29 -35 -12 -41 -68 -9 -76 12 -3 35 -3 50 0 17 3 46 -2 71 -12 36 -15 71 -18
223 -16 224 2 341 -10 370 -39 20 -21 20 -21 0 -37 -18 -14 -11 -15 88 -9 74
5 107 3 102 -4 -4 -6 8 -10 32 -10 52 -1 114 -16 123 -31 6 -9 30 -10 89 -5
44 3 201 3 348 -1 249 -6 265 -8 223 -21 -52 -16 -288 -26 -322 -14 -35 13
-313 -1 -331 -17 -12 -9 -50 -11 -159 -6 -79 3 -154 8 -168 11 -24 5 -24 6 -6
20 19 13 19 14 -7 14 -15 0 -27 -5 -27 -11 0 -13 -138 -5 -205 12 -110 28
-141 31 -276 30 -91 -2 -149 1 -153 8 -6 9 28 16 109 23 42 4 35 21 -16 35
-23 7 -50 20 -60 29 -13 12 -28 15 -52 10 -18 -3 -67 -2 -108 3 -121 16 -192
17 -196 4 -6 -16 60 -43 103 -43 18 0 40 -7 49 -16 9 -9 39 -19 68 -23 l52 -7
-61 -7 c-66 -7 -94 -15 -94 -27 0 -10 36 -20 75 -20 17 0 41 -7 54 -14 23 -13
19 -14 -45 -18 -40 -3 -77 0 -89 6 -24 13 -170 45 -207 46 -18 0 -28 -5 -28
-14 0 -10 20 -19 58 -26 31 -7 65 -16 74 -21 18 -10 71 -17 164 -23 28 -2 60
-8 70 -13 11 -6 46 -15 79 -22 33 -7 79 -19 102 -28 33 -12 51 -13 93 -4 62
13 270 14 325 1 22 -5 84 -12 138 -16 53 -4 97 -11 97 -16 0 -5 10 -2 22 6 12
9 26 16 30 16 11 0 10 -28 -2 -35 -25 -16 -517 -40 -533 -26 -7 5 -45 11 -86
12 -43 2 -79 9 -87 16 -15 15 -184 19 -184 4 0 -13 51 -21 295 -49 44 -5 60
-11 60 -22 0 -12 -24 -16 -130 -21 -71 -4 -142 -11 -156 -17 -28 -11 -70 -5
-81 11 -4 7 -30 6 -77 -1 -38 -7 -87 -12 -108 -12 -21 0 -70 -13 -108 -30 -68
-29 -74 -29 -245 -30 -96 -1 -193 -5 -215 -9 l-40 -9 37 -1 c20 0 49 -6 65
-12 15 -6 105 -14 198 -18 178 -8 171 -9 232 35 31 22 58 12 41 -15 -16 -27
-10 -31 58 -39 l59 -7 -50 -6 -50 -6 48 -1 c40 -2 47 -5 47 -22 0 -17 -7 -20
-52 -20 -29 0 -82 5 -118 11 -36 6 -86 10 -112 9 -25 0 -49 4 -53 10 -12 19
-119 10 -205 -18 -9 -2 1 -9 25 -17 59 -18 23 -28 -56 -16 -80 14 -169 14
-169 1 0 -10 29 -40 76 -76 35 -27 70 -30 214 -20 248 18 280 17 280 -15 0
-31 -44 -41 -192 -42 -124 -2 -137 -4 -132 -19 2 -9 1 -19 -4 -22 -12 -7 -8
-36 8 -66 8 -14 19 -34 25 -45 9 -17 22 -20 103 -23 80 -2 98 0 126 18 42 25
72 25 114 0 36 -22 111 -27 129 -9 7 7 25 9 45 5 18 -3 224 -8 458 -11 234 -3
454 -10 490 -15 183 -28 246 -31 388 -19 113 10 142 15 142 27 0 8 7 20 14 26
8 6 16 18 18 26 3 13 -21 15 -169 15 -123 0 -176 4 -184 12 -22 22 0 28 112
30 84 1 112 5 124 17 17 17 57 15 135 -5 43 -11 110 -12 110 -1 -1 28 -29 39
-116 46 -28 2 -88 12 -133 22 -70 15 -84 16 -91 4 -13 -22 -2 -30 41 -30 21 0
39 -4 39 -10 0 -5 -25 -10 -55 -10 -30 0 -55 5 -55 10 0 6 -10 10 -22 10 -12
0 -35 4 -52 10 -17 5 -48 12 -68 15 -32 5 -38 10 -38 30 0 32 -27 45 -92 45
-30 0 -58 4 -64 9 -5 5 -18 12 -29 15 -11 3 26 4 82 2 106 -4 122 4 65 33 -27
14 -292 30 -292 17 0 -9 35 -43 51 -49 8 -3 -29 -6 -82 -6 -55 -1 -100 -6
-106 -12 -15 -15 -237 -13 -280 3 -18 7 -33 18 -33 26 0 12 18 14 103 10 84
-4 112 -2 157 14 37 13 68 17 96 13 53 -7 79 2 63 22 -22 26 -53 37 -113 43
-56 5 -60 6 -63 34 -4 28 -3 28 34 22 21 -3 87 -10 147 -16 82 -7 111 -13 121
-26 8 -12 21 -15 40 -12 39 8 93 -9 123 -39 22 -22 39 -27 106 -33 79 -7 238
2 286 16 14 4 34 13 45 21 13 8 52 13 115 13 52 1 115 5 139 9 36 7 52 5 85
-11 67 -32 69 -33 65 -43 -5 -11 -28 -12 -114 -2 -33 4 -53 4 -45 0 8 -3 26
-14 39 -24 29 -23 76 -24 125 -4 24 10 49 13 73 9 19 -4 70 -8 112 -9 42 -1
91 -5 109 -9 30 -8 32 -7 32 18 0 25 -2 26 -53 26 -33 0 -60 6 -73 16 -17 14
-13 15 54 9 l72 -6 0 59 c0 68 6 65 -135 77 -91 8 -154 24 -184 47 -13 10 -33
18 -45 18 -11 1 -32 7 -46 15 -14 8 -46 14 -72 15 -26 0 -50 5 -53 10 -7 12
36 30 71 30 13 0 24 5 24 10 0 6 -26 10 -59 10 -33 0 -63 -4 -66 -10 -3 -5
-25 -10 -48 -10 -23 0 -73 -3 -112 -7 l-70 -7 45 -7 c25 -4 76 -12 114 -17 38
-6 72 -15 75 -20 3 -5 17 -13 30 -17 13 -4 19 -11 14 -16 -12 -12 -156 5 -161
19 -2 7 -24 12 -52 12 -30 0 -52 5 -60 15 -8 10 -30 15 -63 15 -32 0 -57 6
-68 16 -13 12 -43 16 -128 17 -61 1 -111 5 -111 9 0 17 34 21 209 23 405 5
642 17 637 31 -4 11 18 14 114 14 68 0 120 -4 120 -9 0 -5 9 -13 20 -16 31
-10 12 -26 -23 -20 -18 3 -95 1 -172 -5 -182 -14 -168 -11 -155 -24 6 -6 46
-11 88 -11 127 -1 152 -4 152 -17 0 -9 -15 -12 -51 -9 -29 2 -56 -2 -62 -8 -8
-8 7 -11 54 -11 39 0 72 -6 84 -14 11 -7 48 -17 83 -21 62 -7 62 -7 62 18 0
24 -3 25 -67 29 -38 2 -74 0 -80 -5 -9 -7 -13 -4 -13 7 0 13 13 16 80 16 l80
0 0 115 0 115 -55 0 c-30 0 -55 5 -55 10 0 6 25 10 55 10 48 0 55 3 55 19 0
15 -8 21 -32 24 l-33 4 33 1 c29 2 32 5 32 35 l0 33 -157 16 c-177 18 -324 43
-356 59 -19 11 -19 13 -4 24 9 6 21 24 26 38 10 26 12 27 68 21 67 -8 93 -19
93 -39 0 -19 31 -35 68 -35 16 0 35 -7 42 -15 8 -10 31 -15 72 -15 43 0 60 -4
64 -15 4 -10 20 -15 45 -15 l39 0 0 1529 0 1529 -27 6 c-16 3 -71 11 -123 16
-116 13 -135 18 -185 45 -38 22 -48 22 -255 18 -118 -2 -237 -8 -263 -13 -62
-13 -123 -13 -147 0 -21 11 -99 25 -229 40 -46 6 -89 14 -95 19 -6 5 -81 10
-166 10 -85 0 -205 1 -266 1 l-112 1 -26 -32 -27 -31 -112 -3 c-62 -1 -123 3
-137 8 -14 5 -58 11 -99 12 -40 2 -75 6 -78 8 -2 3 -30 -2 -61 -10 -31 -8 -77
-16 -101 -18 -24 -2 -49 -9 -55 -15 -5 -5 -17 -10 -26 -10 -9 0 -24 -16 -33
-35 -21 -44 -49 -55 -138 -55 -66 0 -70 -1 -64 -20 10 -30 -39 -47 -80 -27
-16 8 -54 20 -83 26 -62 13 -122 54 -122 84 0 12 -11 30 -25 42 -14 11 -35 40
-48 65 -20 38 -30 46 -63 53 -104 21 -175 27 -329 32 -71 2 -153 7 -182 10
-48 7 -52 6 -69 -19z m-1720 -552 c26 -10 18 -24 -14 -24 -30 0 -41 14 -17 23
6 3 13 6 14 6 1 1 8 -2 17 -5z m-910 -977 c15 -24 -3 -35 -20 -13 -8 11 -14
24 -14 29 0 13 22 3 34 -16z m75 -9 c-14 -27 -5 -33 65 -47 33 -6 62 -13 65
-17 9 -9 -23 -24 -39 -18 -8 4 -22 6 -30 6 -8 -1 -38 -2 -67 -2 -46 -1 -55 -4
-74 -31 -18 -25 -27 -30 -58 -27 -33 3 -36 6 -39 37 -4 39 9 51 56 51 26 0 43
9 73 40 41 41 68 46 48 8z m-391 12 c20 0 32 -5 32 -14 0 -16 -58 -27 -63 -12
-2 7 -10 6 -21 -4 -16 -13 -20 -12 -32 5 -17 23 -1 38 31 30 11 -2 35 -5 53
-5z m149 -82 c-2 -7 -10 -12 -17 -10 -7 1 -18 -3 -26 -9 -11 -9 -14 -7 -14 10
0 17 6 21 31 21 20 0 29 -4 26 -12z m1063 -28 c0 -5 -7 -10 -16 -10 -8 0 -12
5 -9 10 3 6 10 10 16 10 5 0 9 -4 9 -10z m50 -5 c0 -8 -7 -15 -15 -15 -8 0
-15 7 -15 15 0 8 7 15 15 15 8 0 15 -7 15 -15z m1155 -55 c30 -12 25 -30 -10
-30 -40 0 -57 10 -44 26 14 17 20 17 54 4z m-1681 -16 c9 -3 16 -10 16 -16 0
-14 -43 -5 -48 10 -4 13 7 15 32 6z m169 -31 c-7 -2 -21 -2 -30 0 -10 3 -4 5
12 5 17 0 24 -2 18 -5z m1439 -19 c77 -9 118 -23 112 -39 -9 -22 -56 -25 -83
-4 -16 13 -40 19 -71 19 -50 0 -89 24 -53 33 10 3 24 3 30 1 7 -2 36 -6 65
-10z m218 -5 c16 -13 35 -19 45 -15 19 7 105 -13 105 -24 0 -4 -28 -10 -62
-12 -51 -4 -67 -2 -83 12 -11 10 -30 23 -42 29 -13 6 -23 16 -23 21 0 17 29
11 60 -11z m1230 7 c0 -17 -52 -26 -94 -15 l-31 7 35 2 c28 2 63 9 88 19 1 1
2 -5 2 -13z m-545 -26 c3 -5 -1 -10 -10 -10 -9 0 -13 5 -10 10 3 6 8 10 10 10
2 0 7 -4 10 -10z m-242 -20 c9 -11 17 -25 17 -30 0 -12 -41 -23 -67 -18 -27 5
-28 42 -1 56 31 15 31 15 51 -8z m220 -27 c-7 -2 -19 -2 -25 0 -7 3 -2 5 12 5
14 0 19 -2 13 -5z m-325 -190 c2 -8 -6 -13 -22 -13 -17 0 -26 5 -26 16 0 19
41 16 48 -3z m882 -114 c25 -1 25 -1 -3 -11 l-29 -10 29 -19 28 -19 -57 0
c-43 0 -58 4 -58 14 0 8 8 17 17 20 20 8 7 23 -27 29 -14 3 -2 3 25 1 28 -2
61 -4 75 -5z m123 -15 c13 -13 -3 -21 -32 -16 -17 2 -28 8 -25 13 6 10 48 12
57 3z m-258 -194 c-3 -5 -15 -10 -26 -10 -10 0 -19 5 -19 10 0 6 12 10 26 10
14 0 23 -4 19 -10z m-186 -9 c7 -5 9 -11 4 -14 -14 -9 -123 4 -123 14 0 12
101 11 119 0z m75 -62 c29 -8 36 -13 25 -20 -31 -20 -139 -2 -139 23 0 11 68
10 114 -3z m961 -39 c19 -7 19 -8 2 -15 -22 -9 -145 4 -152 16 -8 11 122 11
150 -1z m265 -10 c0 -12 -92 -12 -165 0 -42 6 -33 8 58 9 65 0 107 -3 107 -9z
m-510 -40 c11 -7 3 -10 -28 -10 -26 0 -41 4 -37 10 8 13 45 13 65 0z m298
-366 c24 -3 40 -10 36 -15 -6 -11 -315 -6 -333 6 -6 3 -8 11 -5 17 6 10 201 5
302 -8z m1129 9 c-20 -2 -52 -2 -70 0 -17 2 0 4 38 4 39 0 53 -2 32 -4z m-297
-153 c10 -7 -7 -10 -58 -10 -46 0 -71 4 -67 10 8 13 105 13 125 0z m1290 1
c17 -5 -6 -9 -70 -14 -113 -7 -484 5 -425 14 55 9 464 9 495 0z m-1806 -17 c9
-3 16 -10 16 -15 0 -12 -297 -12 -305 0 -9 16 253 29 289 15z m836 -15 c10 -7
-5 -8 -45 -4 -33 4 -67 11 -75 16 -10 7 5 8 45 4 33 -4 67 -11 75 -16z m-196
-39 c15 -6 122 -10 244 -11 119 0 241 -4 270 -8 58 -8 105 -42 85 -62 -15 -15
-101 -15 -115 -1 -7 7 -38 12 -70 12 -32 0 -75 7 -96 15 -32 13 -51 14 -122 4
-47 -6 -181 -13 -297 -16 -189 -4 -213 -3 -213 11 0 24 43 46 107 56 32 4 69
12 83 18 24 9 72 2 124 -18z m304 -117 c-10 -2 -28 -2 -40 0 -13 2 -5 4 17 4
22 1 32 -1 23 -4z m-175 -74 c41 -18 16 -29 -73 -29 -75 0 -190 26 -190 44 0
13 230 0 263 -15z m522 -32 c63 2 285 -20 285 -28 0 -3 -20 -4 -44 -2 -24 3
-67 0 -96 -7 -46 -11 -49 -13 -33 -26 15 -12 3 -13 -87 -7 -58 3 -112 9 -120
13 -8 4 -45 11 -82 14 -62 7 -67 6 -73 -15 -7 -21 -11 -21 -84 -15 -42 4 -101
11 -131 14 l-55 7 49 18 c27 9 77 17 110 17 40 1 68 6 81 16 17 13 37 14 130
8 61 -5 128 -8 150 -7z m435 -87 c0 -5 -4 -10 -10 -10 -5 0 -10 5 -10 10 0 6
5 10 10 10 6 0 10 -4 10 -10z m50 -10 c0 -5 -6 -10 -14 -10 -8 0 -18 5 -21 10
-3 6 3 10 14 10 12 0 21 -4 21 -10z m-1727 -66 c43 -4 77 -11 77 -15 0 -10
-172 -12 -220 -3 -22 5 -28 9 -18 15 16 10 60 11 161 3z m1119 -20 c10 -10
-43 -54 -65 -55 -28 -1 -86 14 -114 29 -12 7 -33 12 -47 12 -14 0 -26 5 -26
10 0 10 242 15 252 4z m656 -11 c3 -10 -23 -13 -110 -13 -62 0 -124 3 -137 7
-49 13 10 22 128 20 81 -1 116 -6 119 -14z m-1444 -22 c9 -15 -21 -21 -102
-21 -107 0 -147 13 -67 21 99 9 163 10 169 0z m415 -167 c3 -3 -2 -10 -10 -17
-19 -17 -290 -8 -296 10 -3 7 10 13 34 15 48 4 267 -3 272 -8z m-311 -48 c6
-4 51 -11 99 -17 109 -12 129 -18 88 -30 -17 -5 -68 -4 -120 1 -374 41 -518
49 -530 30 -7 -12 -151 -12 -180 -1 -36 15 180 28 411 26 122 -1 226 -5 232
-9z m806 -5 c69 -9 70 -27 1 -33 -38 -3 -62 -11 -78 -26 -29 -27 -53 -28 -95
-2 -18 11 -47 21 -65 21 l-32 2 34 6 c19 3 36 12 39 19 3 10 -23 12 -136 6
-77 -4 -148 -3 -159 2 -43 20 340 25 491 5z m311 -47 l30 -13 -42 -1 c-41 0
-150 24 -162 36 -11 11 143 -9 174 -22z m-642 -20 c9 -3 15 -10 12 -15 -8 -12
-82 -12 -90 1 -3 6 -21 10 -38 11 -18 0 -41 5 -52 10 -20 9 132 3 168 -7z
m330 -21 c-13 -2 -33 -2 -45 0 -13 2 -3 4 22 4 25 0 35 -2 23 -4z m-1107 -48
c16 -8 35 -15 42 -15 6 0 12 -4 12 -10 0 -14 -40 -12 -68 4 -17 9 -61 12 -155
9 -121 -3 -129 -2 -97 11 l35 14 -45 5 c-25 3 21 3 101 1 104 -3 155 -8 175
-19z m908 6 c7 -10 -141 -25 -188 -19 -16 1 -31 9 -34 16 -3 9 23 12 107 12
60 0 112 -4 115 -9z m-1427 -157 c2 -6 -14 -16 -35 -22 -47 -14 -53 -14 -71
-3 -12 8 -12 12 -2 25 15 18 102 18 108 0z m978 -4 c4 -6 1 -17 -5 -25 -10
-12 -38 -15 -123 -15 -91 0 -114 -3 -130 -17 -16 -15 -35 -17 -115 -15 -103 3
-132 8 -132 23 0 5 30 9 68 9 52 1 76 6 107 25 37 22 51 24 182 24 88 1 144
-3 148 -9z m-915 -137 c23 -6 21 -8 -20 -18 -37 -10 -45 -15 -43 -33 2 -16 -3
-22 -17 -22 -10 0 -22 5 -25 10 -3 6 -15 10 -26 10 -20 0 -24 8 -11 26 20 30
85 43 142 27z m1008 -60 c-15 -2 -42 -2 -60 0 -18 2 -6 4 27 4 33 0 48 -2 33
-4z"/>
<path d="M4035 8040 c-3 -5 -1 -10 4 -10 6 0 11 5 11 10 0 6 -2 10 -4 10 -3 0
-8 -4 -11 -10z"/>
<path d="M793 9503 c9 -2 23 -2 30 0 6 3 -1 5 -18 5 -16 0 -22 -2 -12 -5z"/>
<path d="M717 9478 c-22 -12 -22 -44 -1 -52 9 -3 90 -9 180 -12 l164 -6 -4 23
c-3 13 -5 29 -5 35 -1 8 -30 12 -83 12 -46 1 -117 3 -159 6 -41 2 -83 0 -92
-6z"/>
<path d="M1475 9471 c-6 -11 9 -23 19 -14 9 9 7 23 -3 23 -6 0 -12 -4 -16 -9z"/>
<path d="M1850 9466 c-7 -9 -28 -16 -49 -16 -28 0 -33 -3 -21 -11 22 -15 -62
-2 -123 19 -33 11 -50 13 -55 6 -4 -6 -19 -14 -34 -18 -16 -3 -28 -12 -28 -19
0 -6 -4 -19 -10 -27 -8 -12 -11 -12 -27 2 -33 30 -74 40 -92 24 -11 -10 -35
-14 -73 -13 -35 1 -62 -3 -69 -10 -10 -11 0 -13 53 -13 37 0 70 -5 73 -11 5
-7 -14 -8 -62 -4 -57 6 -71 4 -82 -9 -11 -13 -27 -15 -80 -12 -46 4 -57 3 -36
-3 17 -5 49 -9 73 -10 43 -1 79 -22 67 -40 -3 -6 15 -19 41 -30 61 -27 49 -42
-29 -35 -38 3 -77 1 -100 -7 -30 -10 -42 -10 -55 -1 -10 7 -23 15 -30 18 -19
10 -62 -5 -62 -21 0 -13 -22 -14 -157 -8 -202 8 -194 8 -284 -1 -51 -5 -83 -4
-97 3 -11 6 -68 11 -126 12 -58 0 -108 5 -112 10 -3 5 -16 9 -29 9 -41 0 -41
25 -1 47 14 8 25 8 37 0 27 -17 49 8 49 54 0 21 -4 40 -10 44 -5 3 -27 -6 -49
-20 -46 -28 -91 -33 -91 -10 0 8 -4 15 -9 15 -10 0 -34 38 -47 73 -8 21 -24
23 -24 2 0 -21 -35 -37 -65 -29 -25 6 -25 5 -25 -56 0 -38 4 -59 10 -55 13 8
50 -4 50 -16 0 -6 -14 -8 -30 -5 l-30 4 0 -73 c0 -57 3 -74 16 -79 29 -11 55
-6 61 12 9 25 44 62 60 62 7 0 13 4 13 10 0 13 63 0 73 -16 12 -20 48 -23 301
-29 132 -3 243 -8 248 -11 5 -3 86 -5 179 -5 157 1 171 0 176 -17 2 -10 19
-22 36 -28 25 -7 31 -14 29 -30 -4 -29 17 -33 238 -39 102 -3 247 -7 322 -10
76 -2 148 -1 160 4 13 4 74 5 136 2 63 -3 118 -3 123 0 5 3 7 13 4 21 -11 27
13 30 57 6 38 -19 61 -22 208 -25 91 -2 224 -8 295 -14 72 -6 191 -11 265 -11
245 1 230 0 230 23 0 20 -4 20 -81 14 -86 -7 -105 7 -27 19 23 4 48 12 55 18
9 7 27 6 64 -6 28 -9 59 -14 69 -11 11 3 37 1 59 -5 22 -6 160 -12 308 -15
147 -3 297 -7 333 -10 49 -5 70 -3 85 9 28 21 8 41 -27 27 -22 -8 -27 -6 -38
17 -7 15 -14 36 -14 47 -1 25 -46 35 -46 11 0 -11 -9 -16 -29 -16 -69 0 -80
27 -25 61 37 23 33 39 -12 39 -12 0 -27 7 -34 15 -7 8 -19 15 -26 15 -8 0 -14
5 -14 11 0 9 -32 10 -114 6 -92 -4 -117 -2 -127 9 -6 8 -18 14 -25 14 -8 0
-14 7 -14 15 0 8 7 15 16 15 8 0 13 4 10 9 -10 16 -61 -4 -61 -24 0 -22 -27
-33 -81 -34 -25 -1 -51 -9 -66 -21 -28 -22 -38 -18 -38 16 0 44 -21 74 -51 74
-24 0 -32 -7 -44 -37 -13 -30 -13 -42 -4 -59 7 -13 8 -38 4 -62 -9 -54 -36
-67 -144 -67 -47 0 -89 -4 -93 -10 -12 -17 -224 -2 -213 14 2 5 39 6 81 3 62
-4 76 -2 72 9 -6 19 -80 37 -154 38 -47 1 -67 -4 -86 -19 -24 -18 -34 -19
-139 -11 -63 5 -121 5 -129 0 -9 -4 -26 -21 -39 -38 l-23 -30 -44 37 c-51 42
-55 66 -14 87 25 13 35 13 72 2 42 -14 241 -17 254 -4 18 17 -13 28 -69 25
-75 -4 -88 16 -32 47 20 10 41 27 46 38 9 15 17 17 49 12 22 -4 53 -2 72 5 24
9 40 9 61 1 30 -12 28 -31 -4 -31 -30 0 -22 -20 11 -27 21 -4 30 -11 28 -22
-6 -31 95 -55 132 -31 12 8 13 14 2 42 -12 34 -5 47 28 48 8 0 24 2 35 5 11 3
29 -2 40 -10 17 -13 18 -18 6 -36 -16 -27 -2 -42 39 -41 37 1 40 -16 3 -20
-44 -5 -28 -23 22 -26 l45 -3 -12 27 c-11 24 -10 28 12 46 23 19 23 21 7 33
-9 7 -22 27 -28 44 -11 31 -12 31 -30 15 -14 -12 -34 -17 -76 -15 -80 2 -88 6
-106 49 -14 34 -16 35 -22 15 -4 -13 -12 -23 -19 -24 -43 -3 -289 3 -324 7
-36 5 -47 3 -63 -15 -11 -11 -30 -22 -42 -22 -50 -4 -103 4 -117 16 -27 23
-112 38 -144 26 -43 -17 -18 -37 56 -45 34 -4 67 -10 72 -13 17 -11 -76 -33
-95 -22 -10 5 -38 9 -63 9 -39 0 -52 6 -86 36 -29 26 -40 44 -40 65 0 32 -16
47 -33 30 -6 -6 -20 -12 -31 -12 -17 -1 -18 -2 -3 -6 9 -2 17 -9 17 -14 0 -18
-30 -21 -55 -5 -13 9 -32 16 -41 16 -10 0 -14 3 -10 7 4 4 13 8 19 8 7 0 13 5
15 10 5 17 -44 17 -58 1z m-131 -42 c2 -2 1 -10 -2 -19 -8 -18 -38 -20 -55 -2
-7 6 -18 12 -24 12 -6 0 -13 6 -16 13 -3 11 6 12 44 6 27 -3 51 -8 53 -10z
m-189 -170 c0 -8 -5 -24 -10 -34 -9 -17 -5 -19 34 -25 62 -10 85 0 83 33 l-2
27 69 -2 c37 -1 75 -4 84 -8 29 -11 -8 -25 -65 -25 -29 0 -53 -4 -53 -9 0 -14
25 -31 58 -37 45 -9 32 -20 -34 -28 -38 -4 -61 -3 -71 6 -8 6 -36 13 -63 14
-43 2 -95 24 -111 47 -14 20 4 46 35 50 17 2 34 5 39 5 4 1 7 -5 7 -14z m409
-36 c18 -14 41 -18 97 -18 40 0 79 -3 88 -6 16 -6 22 -33 9 -35 -5 -1 -26 -3
-48 -4 -22 -2 -55 -7 -72 -10 -43 -8 -113 11 -113 31 0 8 -11 19 -24 24 -50
19 -45 53 7 43 18 -3 43 -14 56 -25z m401 -123 c0 -19 -11 -19 -36 0 -18 14
-18 14 9 15 17 0 27 -5 27 -15z"/>
<path d="M595 9420 c-4 -6 -15 -10 -25 -7 -25 6 -42 -7 -34 -26 8 -23 36 -21
65 2 18 15 21 22 13 31 -9 9 -14 9 -19 0z"/>
<path d="M6340 9340 c0 -5 20 -10 44 -10 25 0 48 5 51 10 4 6 -13 10 -44 10
-28 0 -51 -4 -51 -10z"/>
<path d="M3620 9330 c0 -5 5 -10 10 -10 6 0 10 5 10 10 0 6 -4 10 -10 10 -5 0
-10 -4 -10 -10z"/>
<path d="M1000 9320 c20 -13 40 -13 40 0 0 6 -12 10 -27 10 -22 0 -25 -2 -13
-10z"/>
<path d="M763 9313 c-24 -9 -13 -23 17 -23 20 0 30 5 30 15 0 15 -22 19 -47 8z"/>
<path d="M3925 9290 c7 -12 52 -12 80 0 15 6 6 9 -33 9 -33 1 -51 -3 -47 -9z"/>
<path d="M4080 9290 c0 -6 16 -8 43 -4 58 9 59 14 4 14 -26 0 -47 -5 -47 -10z"/>
<path d="M4218 9293 c18 -2 45 -2 60 0 15 2 0 4 -33 4 -33 0 -45 -2 -27 -4z"/>
<path d="M4022 9204 c4 -21 22 -23 26 -1 2 10 -3 17 -13 17 -10 0 -15 -6 -13
-16z"/>
<path d="M4274 9148 c-3 -11 -1 -25 5 -31 19 -19 12 -30 -14 -24 -14 2 -42 -1
-63 -8 l-37 -13 28 -11 c63 -24 206 18 207 61 0 22 -23 34 -77 41 -36 4 -43 2
-49 -15z"/>
<path d="M4288 9043 c6 -2 18 -2 25 0 6 3 1 5 -13 5 -14 0 -19 -2 -12 -5z"/>
<path d="M3980 7885 c0 -11 11 -15 43 -15 52 0 80 14 45 23 -44 12 -88 8 -88
-8z"/>
<path d="M5009 7859 c-11 -6 -11 -11 -2 -20 13 -13 67 -4 59 10 -9 13 -42 19
-57 10z"/>
<path d="M6553 7553 c9 -2 23 -2 30 0 6 3 -1 5 -18 5 -16 0 -22 -2 -12 -5z"/>
<path d="M4870 7489 c-16 -4 8 -7 64 -8 49 -1 87 1 85 3 -9 8 -126 12 -149 5z"/>
<path d="M5866 7465 c-9 -13 -16 -27 -16 -30 0 -11 50 -4 106 17 32 11 86 24
119 28 49 6 37 7 -66 8 -124 2 -127 2 -143 -23z"/>
<path d="M5823 7363 c9 -2 23 -2 30 0 6 3 -1 5 -18 5 -16 0 -22 -2 -12 -5z"/>
<path d="M6120 7301 c0 -17 31 -21 151 -21 109 0 144 8 103 24 -25 10 -254 7
-254 -3z"/>
<path d="M7773 7303 c9 -2 23 -2 30 0 6 3 -1 5 -18 5 -16 0 -22 -2 -12 -5z"/>
<path d="M5805 7280 c7 -12 72 -12 100 0 14 6 1 9 -43 9 -40 1 -61 -3 -57 -9z"/>
<path d="M6787 7254 c-11 -11 5 -34 24 -34 22 0 24 11 7 28 -13 13 -22 15 -31
6z"/>
<path d="M6640 7160 c0 -5 5 -10 11 -10 5 0 7 5 4 10 -3 6 -8 10 -11 10 -2 0
-4 -4 -4 -10z"/>
<path d="M7448 7163 c7 -3 16 -2 19 1 4 3 -2 6 -13 5 -11 0 -14 -3 -6 -6z"/>
<path d="M2050 7140 c-60 -16 -82 -37 -35 -34 55 4 170 30 170 39 0 16 -65 14
-135 -5z"/>
<path d="M5583 7123 c9 -2 23 -2 30 0 6 3 -1 5 -18 5 -16 0 -22 -2 -12 -5z"/>
<path d="M6295 7120 c8 -13 35 -13 55 0 11 7 5 10 -23 10 -23 0 -36 -4 -32
-10z"/>
<path d="M7268 7123 c12 -2 32 -2 45 0 12 2 2 4 -23 4 -25 0 -35 -2 -22 -4z"/>
<path d="M6710 7105 c-24 -14 -22 -14 35 -15 33 0 71 3 84 7 23 6 23 7 5 14
-31 12 -97 9 -124 -6z"/>
<path d="M1543 7103 c-32 -4 -44 -18 -22 -25 22 -7 103 7 107 20 4 12 -16 13
-85 5z"/>
<path d="M5118 7093 c6 -2 18 -2 25 0 6 3 1 5 -13 5 -14 0 -19 -2 -12 -5z"/>
<path d="M3562 7073 c-30 -2 -50 -8 -47 -14 7 -10 257 -11 295 0 19 6 10 9
-39 14 -63 7 -106 7 -209 0z"/>
<path d="M4038 7013 c7 -3 16 -2 19 1 4 3 -2 6 -13 5 -11 0 -14 -3 -6 -6z"/>
<path d="M7403 7013 c15 -2 37 -2 50 0 12 2 0 4 -28 4 -27 0 -38 -2 -22 -4z"/>
<path d="M7488 6993 c-22 -6 -23 -19 -3 -27 21 -8 108 5 98 14 -11 10 -74 19
-95 13z"/>
<path d="M2815 6980 c-4 -6 12 -10 42 -9 36 0 43 3 28 9 -28 12 -63 12 -70 0z"/>
<path d="M3668 6953 c12 -2 30 -2 40 0 9 3 -1 5 -23 4 -22 0 -30 -2 -17 -4z"/>
<path d="M5562 6938 c-9 -4 -33 -7 -52 -7 -19 -1 -53 -12 -75 -26 -22 -13 -49
-25 -61 -25 -12 0 -31 -9 -44 -20 -13 -11 -32 -20 -42 -20 -18 0 -218 -98
-228 -112 -3 -4 -21 -14 -40 -22 -19 -8 -46 -26 -59 -40 -14 -14 -28 -26 -32
-26 -5 0 -31 -13 -59 -30 -28 -16 -62 -33 -75 -36 -14 -3 -29 -11 -33 -18 -11
-17 -59 -46 -78 -46 -9 0 -37 -20 -62 -45 -25 -25 -57 -48 -71 -52 -13 -3 -53
-27 -88 -52 -70 -50 -131 -91 -177 -119 -16 -9 -39 -26 -50 -37 -40 -38 -91
-69 -126 -74 -26 -5 -35 -11 -35 -26 0 -14 -8 -21 -25 -23 -13 -2 -30 -13 -38
-23 -7 -10 -20 -19 -28 -19 -8 0 -22 -9 -31 -20 -10 -11 -23 -20 -30 -20 -7 0
-12 -6 -11 -12 2 -9 -9 -13 -31 -13 -30 0 -39 -6 -69 -47 -20 -29 -42 -48 -53
-48 -10 0 -19 -4 -19 -8 0 -4 -28 -25 -62 -46 -39 -24 -93 -74 -141 -128 -44
-48 -85 -88 -92 -88 -8 0 -23 -13 -35 -30 -12 -16 -27 -30 -33 -30 -7 0 -21
-11 -31 -25 -10 -14 -24 -25 -31 -25 -6 0 -23 -17 -36 -37 -34 -53 -214 -173
-258 -173 -5 0 -57 -47 -115 -105 -58 -58 -111 -105 -118 -105 -7 0 -35 -20
-62 -45 -26 -25 -52 -45 -55 -45 -4 0 -14 -12 -21 -27 -29 -59 -61 -92 -130
-132 -69 -41 -160 -124 -160 -147 0 -6 -11 -17 -25 -24 -14 -7 -25 -19 -25
-27 0 -7 -6 -13 -13 -13 -16 0 -61 -47 -70 -72 -4 -11 -17 -18 -31 -18 -20 0
-30 -9 -46 -40 -26 -51 -88 -109 -117 -110 -11 0 -46 -20 -76 -45 -31 -25 -59
-45 -64 -45 -15 -1 -70 -55 -89 -87 -10 -18 -26 -33 -34 -33 -17 0 -60 -39
-60 -54 0 -4 -9 -20 -20 -34 -59 -77 -96 -113 -129 -123 -20 -7 -59 -36 -87
-66 -28 -29 -54 -53 -58 -53 -9 0 -66 -62 -66 -71 0 -5 -5 -9 -12 -9 -7 0 -22
-12 -34 -27 -18 -22 -24 -25 -36 -15 -20 16 -48 -15 -81 -88 -16 -36 -40 -68
-71 -93 -25 -21 -46 -47 -46 -57 0 -27 -38 -50 -85 -50 -27 -1 -48 -8 -65 -23
-43 -38 -81 -94 -75 -110 4 -8 -3 -23 -15 -34 -24 -23 -30 -84 -10 -108 10
-12 10 -15 -4 -15 -11 0 -16 -9 -16 -26 0 -15 -13 -41 -30 -61 -16 -18 -30
-39 -30 -45 0 -6 -7 -20 -16 -29 -15 -17 -15 -21 1 -55 15 -32 15 -38 2 -51
-14 -14 -17 -13 -34 3 -11 11 -22 27 -26 36 -4 11 -13 15 -26 11 -18 -5 -20
-11 -15 -58 6 -62 -8 -107 -31 -99 -8 3 -15 1 -15 -5 0 -7 -13 -9 -39 -5 -24
4 -41 2 -45 -5 -4 -6 -22 -11 -39 -11 -41 0 -52 -8 -64 -45 -6 -17 -16 -29
-24 -27 -7 2 -23 -2 -36 -9 -18 -10 -26 -9 -38 1 -13 11 -18 10 -29 -5 -9 -13
-15 -15 -20 -7 -10 17 -26 15 -26 -3 0 -8 -5 -15 -11 -15 -7 0 -9 -10 -7 -25
3 -13 2 -24 -1 -23 -26 3 -42 -6 -47 -26 -6 -25 -43 -39 -65 -25 -20 12 -29 1
-29 -37 0 -29 -3 -34 -24 -34 -18 0 -25 -7 -30 -31 -3 -17 -6 -571 -6 -1230
l0 -1199 953 2 952 3 3 32 c2 17 9 37 17 43 16 14 117 10 185 -8 25 -6 70 -16
100 -22 30 -6 66 -13 80 -16 20 -4 28 1 42 25 9 16 43 50 76 76 46 36 58 51
55 68 -3 13 8 40 27 68 l30 47 -10 98 c-6 55 -13 123 -16 152 -5 45 -10 56
-40 78 -18 14 -39 24 -46 21 -25 -9 -33 -7 -33 10 0 9 -5 18 -11 20 -15 5 -6
-47 12 -68 12 -14 11 -18 -5 -33 -19 -17 -20 -17 -37 15 -14 28 -15 38 -5 66
9 24 9 38 1 53 -10 18 -8 22 8 27 25 6 35 43 22 77 -5 14 -6 26 -2 26 4 0 2 4
-4 8 -6 4 -9 23 -6 45 4 34 9 40 58 62 30 14 57 25 60 25 3 0 18 10 34 21 27
20 34 21 87 11 72 -14 147 -21 284 -28 l105 -6 35 34 c19 18 41 48 48 66 7 17
17 32 22 32 4 0 11 16 15 35 3 19 20 52 36 72 25 32 28 43 22 68 -8 28 -10
142 -4 265 1 30 0 83 -3 118 -5 57 -3 65 20 93 26 30 27 30 97 24 106 -9 109
-9 141 4 20 8 41 9 65 3 43 -11 84 4 122 45 29 31 78 122 78 146 0 9 5 19 11
23 12 7 7 109 -12 234 -6 36 -12 92 -15 125 l-5 60 61 54 61 54 127 4 c97 3
129 7 135 19 4 7 12 14 17 14 12 0 51 38 77 75 63 90 125 131 211 138 52 4 92
27 92 53 0 8 13 35 29 62 17 26 40 73 52 104 12 32 32 64 44 72 13 9 27 34 35
63 7 26 18 54 23 61 6 7 22 35 36 62 14 27 42 70 61 97 19 26 44 73 56 103 15
41 27 56 45 60 21 5 38 24 74 84 6 9 24 18 40 20 17 2 41 9 55 14 50 21 233
33 459 31 l231 -2 68 -74 c37 -40 72 -84 77 -98 6 -13 20 -34 31 -47 29 -32
44 -93 44 -175 0 -51 5 -79 21 -108 12 -22 26 -65 31 -95 5 -30 13 -75 17
-100 5 -25 16 -62 25 -82 9 -21 16 -48 16 -61 0 -24 28 -56 67 -76 12 -6 65
-13 117 -14 57 -2 100 -8 109 -16 18 -14 12 -40 -13 -58 -10 -7 -20 -29 -23
-50 -5 -31 -1 -47 26 -91 18 -30 40 -54 52 -56 11 -2 47 -9 80 -16 63 -12 155
-26 240 -36 60 -7 124 -34 125 -51 0 -7 7 -13 15 -13 8 0 15 -4 15 -10 0 -5
-4 -10 -9 -10 -4 0 -16 -20 -25 -44 -9 -24 -25 -54 -36 -65 -10 -12 -33 -44
-52 -72 -22 -33 -42 -52 -60 -55 -53 -12 -62 -34 -55 -135 6 -74 13 -104 39
-156 44 -91 65 -103 176 -103 68 0 100 -5 135 -20 25 -11 60 -20 79 -19 67 2
157 -14 171 -30 8 -9 20 -32 26 -52 10 -30 9 -42 -8 -78 -10 -24 -29 -48 -42
-55 -17 -8 -24 -20 -24 -41 0 -17 -8 -42 -17 -57 -42 -65 -48 -78 -48 -100 0
-25 -45 -98 -60 -98 -6 0 -10 -11 -10 -24 0 -13 -7 -29 -16 -36 -40 -34 -40
-49 2 -133 8 -16 14 -34 14 -41 0 -31 32 -73 73 -95 43 -23 43 -23 117 -7 40
9 107 16 149 15 42 0 83 2 92 5 8 4 32 0 52 -9 20 -8 56 -15 81 -15 25 0 48
-5 52 -11 4 -7 21 -9 43 -6 32 5 34 4 18 -7 -16 -12 -15 -14 14 -18 37 -6 93
28 95 57 2 45 5 53 20 59 21 8 64 -22 64 -45 0 -28 -21 -67 -45 -83 -14 -9
-26 -33 -34 -70 -8 -36 -20 -61 -32 -69 -11 -7 -32 -33 -46 -59 -14 -25 -34
-48 -44 -51 -12 -3 -22 -17 -25 -36 -6 -30 -13 -35 -90 -75 -13 -6 -28 -30
-38 -62 -14 -46 -23 -57 -76 -91 -63 -40 -93 -84 -71 -106 13 -13 15 -104 2
-109 -4 -1 -11 -13 -15 -25 l-7 -23 1118 1 c615 1 1110 3 1101 6 -20 5 -40 66
-31 90 5 12 2 15 -10 10 -9 -3 -17 -2 -17 3 0 6 5 10 10 10 13 0 13 47 1 54
-5 4 -12 25 -16 47 -8 44 2 58 40 59 11 0 31 9 45 20 l25 19 -27 26 c-15 14
-33 25 -40 25 -7 0 -19 13 -26 30 -8 16 -20 30 -27 30 -15 0 -35 58 -35 98 0
13 -4 20 -10 17 -5 -3 -19 -1 -31 6 -17 8 -19 13 -8 19 10 7 10 12 1 22 -9 11
-9 17 0 26 16 16 -10 45 -34 38 -26 -6 -33 17 -18 54 17 41 5 77 -30 95 l-29
15 -21 -42 c-11 -23 -20 -52 -20 -64 0 -21 -17 -34 -46 -34 -8 0 -14 10 -14
25 0 25 -23 35 -35 15 -10 -16 -85 -13 -85 4 0 7 -9 16 -20 19 -28 7 -35 32
-15 59 l17 23 -6 -26 c-6 -26 -5 -26 40 -21 36 4 51 0 74 -17 41 -29 60 -27
60 7 0 15 5 33 11 39 7 7 8 28 3 59 -6 40 -8 45 -15 26 -10 -25 -27 -29 -35
-7 -4 8 -18 15 -34 15 -22 0 -29 6 -35 27 -3 15 -12 31 -18 35 -8 5 -5 13 7
27 11 12 14 21 8 21 -16 0 -15 33 0 48 9 9 9 12 -3 12 -11 0 -14 9 -11 35 2
19 1 42 -2 51 -6 15 -8 15 -27 -2 -17 -16 -22 -16 -29 -4 -8 13 -11 12 -23 -4
-14 -19 -14 -19 -35 2 -21 21 -22 22 -2 22 11 0 20 5 20 10 0 6 -9 10 -20 10
-11 0 -20 3 -21 8 -5 52 -3 61 16 67 17 6 17 8 3 12 -25 6 -31 33 -8 33 26 0
31 12 20 50 -7 24 -5 38 7 56 8 13 12 31 9 40 -3 9 1 31 10 49 13 27 13 38 3
56 -9 17 -9 24 0 27 28 9 -5 72 -37 72 -19 0 -14 13 15 36 27 22 27 22 9 42
-10 12 -15 25 -12 31 3 5 2 20 -3 33 -6 17 -5 29 6 43 11 16 14 52 13 165 -1
155 5 241 19 305 13 52 18 296 7 313 -6 11 -12 10 -32 -2 -13 -9 -31 -16 -40
-16 -9 0 -38 -18 -64 -40 -26 -22 -56 -40 -66 -40 -11 0 -34 -14 -53 -30 -18
-17 -39 -30 -45 -30 -7 0 -25 -13 -40 -29 -15 -16 -47 -34 -71 -41 -23 -7 -57
-25 -75 -42 -18 -16 -48 -37 -65 -47 -18 -10 -59 -47 -91 -84 -63 -71 -73 -71
-74 -1 -1 107 9 193 29 242 11 29 21 65 21 80 0 15 4 32 9 37 11 13 33 126 37
187 1 26 12 68 24 93 25 51 60 197 91 380 7 39 20 88 29 110 24 56 35 152 20
171 -21 24 -63 16 -123 -26 -31 -22 -64 -40 -72 -40 -7 0 -16 -4 -20 -10 -10
-16 -178 -123 -209 -133 -17 -5 -42 -15 -56 -23 -14 -7 -36 -19 -50 -25 -14
-6 -40 -19 -58 -28 -51 -25 -67 -8 -65 66 0 33 7 71 14 84 7 13 17 58 20 99
12 122 18 159 29 179 5 11 10 44 10 73 0 29 7 71 15 93 8 22 14 69 15 105 0
36 7 92 16 125 22 85 34 150 41 223 l5 63 -38 -7 c-35 -6 -63 -18 -142 -64
-52 -30 -117 -75 -150 -102 -18 -15 -37 -28 -43 -28 -6 0 -34 -20 -62 -44 -51
-43 -98 -74 -147 -98 -14 -6 -36 -21 -50 -32 -13 -12 -19 -14 -13 -6 9 12 9
27 2 57 -11 43 -12 40 43 161 12 25 22 71 24 111 2 37 8 80 14 96 6 16 8 47 4
72 -5 33 -1 56 16 98 15 37 20 66 16 85 -3 17 1 50 8 73 8 23 17 75 21 116 3
40 9 79 11 85 3 7 -5 17 -18 23 -32 14 -79 -10 -98 -50 -14 -29 -44 -53 -95
-76 -12 -5 -27 -16 -34 -25 -7 -9 -19 -16 -26 -16 -6 0 -19 -17 -27 -38 -11
-27 -30 -48 -67 -72 -28 -18 -52 -37 -52 -42 -1 -4 -3 -12 -4 -18 -1 -5 -3
-14 -4 -20 0 -5 -7 -10 -15 -10 -8 0 -16 15 -20 38 -9 55 -7 217 3 244 4 13 4
59 -1 105 -7 67 -6 89 8 125 9 23 19 81 21 128 2 46 8 90 14 96 17 20 -30 82
-66 87 -42 6 -105 -27 -105 -55 0 -32 -38 -83 -79 -104 -19 -11 -39 -24 -45
-29 -18 -17 -136 -95 -159 -105 -50 -22 -151 -82 -161 -96 -11 -15 -60 -15
-85 0 -20 13 -80 -3 -161 -41 -41 -20 -82 -36 -90 -36 -8 0 -26 -7 -40 -17
-14 -9 -54 -24 -90 -34 -36 -10 -78 -26 -95 -36 -16 -9 -43 -18 -60 -18 -30
-1 -77 -11 -150 -33 -22 -7 -67 -13 -100 -15 -33 -2 -96 -8 -140 -14 -107 -15
-151 -16 -210 -3 -27 6 -88 14 -135 18 -113 9 -275 51 -325 85 -22 15 -57 33
-77 39 -21 7 -55 27 -76 44 -21 18 -60 43 -88 56 -50 25 -59 29 -107 59 -61
36 -77 53 -77 80 1 35 22 62 48 62 12 0 26 9 32 20 13 25 19 100 8 100 -4 0
-8 5 -8 11 0 6 9 9 19 6 13 -3 21 1 24 13 7 29 55 31 95 4 19 -13 40 -24 46
-24 6 0 45 -14 86 -31 77 -33 132 -47 210 -55 25 -3 62 -14 83 -26 105 -56
437 -92 585 -64 46 9 88 14 93 11 4 -3 22 1 40 10 17 9 58 21 92 26 34 6 76
19 93 30 17 10 40 19 51 19 24 0 141 57 167 82 19 18 19 18 -12 18 -17 0 -49
-6 -69 -14 -21 -8 -56 -17 -78 -20 -21 -3 -52 -15 -68 -27 -16 -12 -55 -24
-91 -30 -34 -4 -80 -16 -102 -26 -34 -16 -69 -18 -274 -18 -199 1 -239 3 -260
17 -14 9 -47 20 -75 23 -27 4 -56 12 -63 18 -7 6 -32 14 -55 18 -120 21 -237
83 -237 126 0 7 -7 16 -16 21 -12 6 -15 17 -11 33 6 22 26 38 70 55 9 3 17 11
17 16 0 6 13 27 28 47 16 20 34 55 41 79 6 23 16 42 21 42 6 0 19 20 30 43 11
24 26 44 33 44 7 1 37 4 67 8 51 7 57 5 83 -20 21 -22 36 -28 70 -27 48 1 137
-16 137 -27 0 -19 400 4 450 26 8 4 22 7 30 8 8 0 42 14 75 31 101 53 152 51
169 -4 6 -17 15 -22 39 -22 22 0 38 -8 53 -27 14 -18 23 -23 28 -15 4 7 1 12
-8 12 -9 0 -16 7 -16 15 0 21 29 19 37 -2 4 -10 15 -24 25 -31 10 -7 18 -20
18 -28 0 -8 7 -14 15 -14 8 0 15 -7 15 -15 0 -8 9 -15 19 -15 11 0 26 -8 33
-19 7 -10 23 -21 36 -25 16 -5 21 -13 17 -25 -3 -10 -2 -28 3 -41 8 -22 8 -22
41 11 29 28 35 31 45 18 12 -17 78 -9 84 10 2 6 14 11 28 11 16 0 28 9 38 28
18 35 46 61 46 42 0 -10 3 -10 15 0 12 10 18 10 30 0 12 -10 15 -10 15 0 0 10
3 10 15 0 8 -7 22 -10 30 -6 11 4 15 -1 15 -19 0 -17 6 -25 17 -25 10 0 27
-12 39 -27 21 -26 22 -27 63 -13 37 12 41 16 41 47 0 18 1 36 3 40 1 4 -13 8
-32 11 -45 5 -91 48 -91 86 0 23 -4 27 -19 23 -17 -4 -71 40 -71 58 0 12 -49
59 -56 52 -9 -8 -39 23 -39 41 0 8 -15 22 -32 31 -18 9 -33 23 -33 32 0 9 -9
19 -21 22 -13 3 -20 13 -18 24 1 10 -1 26 -6 36 -5 12 -1 25 11 38 16 17 16
22 4 29 -20 13 -30 12 -30 0 0 -5 -7 -10 -15 -10 -8 0 -15 7 -15 15 0 8 -4 15
-10 15 -5 0 -9 -5 -7 -11 1 -6 -4 -14 -12 -17 -10 -3 -12 0 -8 12 5 11 1 16
-13 16 -23 0 -70 48 -70 72 0 10 -4 18 -10 18 -5 0 -10 6 -10 13 0 14 -35 47
-50 47 -6 0 -10 6 -10 13 0 7 -11 23 -24 34 -19 17 -32 20 -71 15 -38 -4 -51
-1 -61 12 -7 10 -15 17 -18 17 -37 -4 -46 2 -55 36 -6 20 -8 39 -6 43 2 4 -7
12 -20 18 -14 7 -25 20 -25 30 0 11 -9 27 -20 37 -11 10 -20 24 -20 32 0 7 -9
13 -20 13 -13 0 -22 9 -26 28 -3 15 -8 34 -10 43 -3 9 -20 27 -39 40 -19 13
-35 28 -35 33 0 15 -33 35 -57 36 -13 0 -23 6 -23 13 0 8 -10 22 -21 33 -12
10 -28 33 -35 51 -11 26 -21 32 -56 39 -56 10 -134 11 -156 2z m249 -654 c6
-13 28 -36 49 -53 28 -22 37 -37 38 -61 0 -17 6 -46 12 -65 6 -19 9 -39 5 -45
-3 -5 -2 -10 4 -10 5 0 22 -13 38 -30 15 -16 33 -30 39 -30 19 0 43 -46 37
-69 -3 -11 -10 -21 -15 -21 -5 0 -36 -20 -68 -45 -55 -42 -62 -45 -136 -49
-44 -3 -119 -10 -169 -16 -95 -12 -195 -6 -260 16 -22 7 -75 19 -118 27 -99
19 -130 44 -121 96 8 44 37 78 75 86 18 4 43 25 69 58 22 29 44 58 50 64 6 7
15 24 20 38 5 13 27 37 49 52 26 18 40 36 41 50 0 39 48 55 122 43 90 -14 143
-13 158 5 11 13 16 13 40 -2 16 -9 34 -27 41 -39z m3159 -4544 l23 -20 -21 0
c-12 0 -22 -5 -22 -11 0 -5 -4 -7 -10 -4 -12 7 -13 55 -2 55 5 0 19 -9 32 -20z
m-68 -115 c-6 -34 -12 -32 -12 6 0 16 4 28 9 25 4 -3 6 -17 3 -31z m-1613 -71
c-14 -18 -24 -11 -15 11 3 9 11 13 16 10 8 -5 7 -11 -1 -21z m2131 -1084 c0
-5 -4 -10 -10 -10 -5 0 -10 5 -10 10 0 6 5 10 10 10 6 0 10 -4 10 -10z"/>
<path d="M1756 6922 c-8 -13 -176 -27 -296 -24 -88 2 -102 0 -85 -10 27 -17
296 -24 346 -9 40 12 66 35 50 45 -5 4 -12 2 -15 -2z"/>
<path d="M1853 6898 c-13 -6 -23 -19 -23 -30 0 -15 8 -18 59 -18 55 0 59 1 54
21 -3 11 -17 25 -30 30 -29 11 -32 11 -60 -3z"/>
<path d="M3324 6899 c46 -6 73 -6 80 1 7 7 -16 10 -69 9 l-80 -2 69 -8z"/>
<path d="M2218 6893 c6 -2 18 -2 25 0 6 3 1 5 -13 5 -14 0 -19 -2 -12 -5z"/>
<path d="M2373 6883 c9 -2 25 -2 35 0 9 3 1 5 -18 5 -19 0 -27 -2 -17 -5z"/>
<path d="M2215 6850 c-4 -6 9 -10 32 -9 30 0 34 2 18 9 -27 12 -43 12 -50 0z"/>
<path d="M2643 6823 c-22 -8 -14 -32 13 -39 30 -8 244 4 294 16 25 6 8 8 -62
7 -65 -1 -102 3 -110 11 -12 12 -110 16 -135 5z"/>
<path d="M34 6805 c36 -19 43 -19 43 0 0 11 -11 15 -36 15 l-36 0 29 -15z"/>
<path d="M2130 6810 c-68 -5 -53 -6 70 -6 85 0 142 3 125 7 -35 8 -78 8 -195
-1z"/>
<path d="M2518 6813 c7 -3 16 -2 19 1 4 3 -2 6 -13 5 -11 0 -14 -3 -6 -6z"/>
<path d="M1143 6743 c9 -2 25 -2 35 0 9 3 1 5 -18 5 -19 0 -27 -2 -17 -5z"/>
<path d="M880 6730 c8 -5 32 -10 53 -10 20 0 45 -4 55 -9 22 -10 110 -41 139
-48 34 -8 98 6 85 19 -9 9 -52 17 -184 34 -27 4 -48 10 -48 15 0 5 -26 9 -57
9 -41 0 -54 -3 -43 -10z"/>
<path d="M7220 6720 c0 -6 27 -10 63 -9 44 0 56 3 42 9 -28 12 -105 12 -105 0z"/>
<path d="M7607 6723 c-13 -12 -7 -21 18 -27 32 -8 75 12 54 25 -17 10 -63 12
-72 2z"/>
<path d="M58 6698 c8 -8 17 -8 34 0 22 10 21 11 -11 11 -27 1 -32 -2 -23 -11z"/>
<path d="M1247 6667 c-8 -20 1 -27 32 -27 29 0 59 15 49 25 -3 3 -21 8 -40 11
-26 5 -37 2 -41 -9z"/>
<path d="M4270 6645 c0 -16 20 -19 57 -9 33 9 18 24 -23 24 -24 0 -34 -5 -34
-15z"/>
<path d="M6538 6653 c7 -3 16 -2 19 1 4 3 -2 6 -13 5 -11 0 -14 -3 -6 -6z"/>
<path d="M3996 6621 c-8 -12 191 -24 240 -15 l39 8 -30 7 c-45 10 -243 10
-249 0z"/>
<path d="M7245 6590 c3 -5 19 -10 36 -10 16 0 29 5 29 10 0 6 -16 10 -36 10
-21 0 -33 -4 -29 -10z"/>
<path d="M7748 6533 c-41 -11 -10 -33 46 -33 39 0 50 8 35 27 -11 13 -46 15
-81 6z"/>
<path d="M6756 6493 c-11 -12 -6 -25 8 -20 7 3 20 -3 29 -14 9 -10 23 -19 32
-19 8 0 19 -8 24 -19 10 -19 35 -23 197 -39 39 -4 79 -14 89 -22 13 -11 47
-16 114 -17 160 -5 295 -18 321 -32 19 -11 56 -13 165 -8 208 10 325 19 325
27 0 11 -181 19 -235 10 -70 -12 -242 -1 -256 17 -8 9 -39 13 -108 13 -106 0
-220 19 -266 44 -16 9 -42 16 -57 16 -34 0 -45 17 -22 35 16 11 17 14 4 18
-23 8 -357 16 -364 10z"/>
<path d="M3361 6461 c-9 -6 9 -10 53 -13 72 -3 86 -1 86 13 0 12 -120 12 -139
0z"/>
<path d="M3180 6425 c-7 -9 -10 -18 -7 -21 11 -11 57 6 57 21 0 20 -34 19 -50
0z"/>
<path d="M3865 6420 c-4 -6 11 -10 37 -9 33 0 38 2 23 9 -28 12 -53 12 -60 0z"/>
<path d="M2934 6395 c-17 -14 -11 -15 71 -9 122 9 143 23 34 24 -62 0 -90 -4
-105 -15z"/>
<path d="M788 6383 c12 -2 32 -2 45 0 12 2 2 4 -23 4 -25 0 -35 -2 -22 -4z"/>
<path d="M2245 6350 c-24 -4 31 -8 138 -9 112 0 177 3 177 9 0 11 -251 11
-315 0z"/>
<path d="M8921 6337 c-15 -19 -4 -27 35 -27 27 0 44 13 44 36 0 11 -69 2 -79
-9z"/>
<path d="M3040 6330 c0 -5 11 -10 25 -10 14 0 25 5 25 10 0 6 -11 10 -25 10
-14 0 -25 -4 -25 -10z"/>
<path d="M9028 6323 c6 -2 18 -2 25 0 6 3 1 5 -13 5 -14 0 -19 -2 -12 -5z"/>
<path d="M7110 6303 c-25 -2 -65 -6 -89 -9 l-44 -6 43 -19 c34 -15 68 -19 164
-21 92 -1 133 -5 170 -20 33 -13 68 -18 105 -16 l56 3 -50 16 c-44 15 -104 29
-240 59 -22 5 -47 10 -55 13 -8 2 -35 2 -60 0z"/>
<path d="M1346 6281 c-8 -12 32 -24 63 -19 12 2 23 8 24 13 3 13 -79 19 -87 6z"/>
<path d="M2300 6160 c0 -6 27 -10 60 -10 33 0 60 4 60 10 0 6 -27 10 -60 10
-33 0 -60 -4 -60 -10z"/>
<path d="M45 6140 c-4 -6 12 -10 39 -10 25 0 46 5 46 10 0 6 -18 10 -39 10
-22 0 -43 -4 -46 -10z"/>
<path d="M2568 6133 c7 -3 16 -2 19 1 4 3 -2 6 -13 5 -11 0 -14 -3 -6 -6z"/>
<path d="M2645 6130 c45 -11 123 -11 130 0 4 6 -24 10 -77 9 -59 -1 -75 -4
-53 -9z"/>
<path d="M7571 6091 c-20 -13 5 -18 123 -26 54 -4 110 -10 125 -14 32 -8 101
1 104 13 6 26 -316 50 -352 27z"/>
<path d="M8078 6094 c-18 -18 -4 -24 57 -24 76 0 87 -16 18 -25 -103 -15 -123
-24 -104 -53 7 -12 19 -12 67 -2 95 19 121 33 115 64 -1 5 4 13 11 17 7 4 10
10 8 13 -9 8 -165 18 -172 10z"/>
<path d="M7375 6030 c-4 -6 7 -10 24 -10 17 0 31 5 31 10 0 6 -11 10 -24 10
-14 0 -28 -4 -31 -10z"/>
<path d="M7743 6023 c15 -2 37 -2 50 0 12 2 0 4 -28 4 -27 0 -38 -2 -22 -4z"/>
<path d="M1965 6010 c3 -5 28 -10 54 -10 39 0 50 -4 53 -18 4 -15 19 -20 74
-25 89 -9 214 -8 238 2 17 7 -37 17 -274 51 -80 12 -152 12 -145 0z"/>
<path d="M3073 6003 c9 -2 25 -2 35 0 9 3 1 5 -18 5 -19 0 -27 -2 -17 -5z"/>
<path d="M3185 6000 c-47 -4 -54 -7 -35 -12 35 -11 98 -10 105 1 8 15 -5 17
-70 11z"/>
<path d="M7618 5993 c7 -3 16 -2 19 1 4 3 -2 6 -13 5 -11 0 -14 -3 -6 -6z"/>
<path d="M13 5983 c9 -2 25 -2 35 0 9 3 1 5 -18 5 -19 0 -27 -2 -17 -5z"/>
<path d="M2775 5975 c-38 -11 -85 -13 -195 -8 -99 4 -142 2 -135 -5 24 -24
314 -35 299 -11 -3 5 34 9 88 10 93 0 211 15 142 18 -17 0 -58 3 -90 6 -35 3
-79 -1 -109 -10z"/>
<path d="M7710 5980 c-12 -8 -12 -10 3 -16 24 -9 246 6 253 17 7 12 -237 11
-256 -1z"/>
<path d="M1903 5913 c-115 -6 -86 -23 38 -23 84 0 110 3 107 13 -5 13 -36 15
-145 10z"/>
<path d="M7510 5890 c36 -12 62 -12 55 0 -3 6 -23 10 -43 9 -33 -1 -34 -2 -12
-9z"/>
<path d="M2830 5832 c0 -6 4 -22 10 -36 8 -21 16 -26 43 -26 18 0 43 7 55 16
21 14 22 14 22 -5 0 -26 26 -28 39 -3 13 24 -1 43 -35 49 -70 12 -134 14 -134
5z"/>
<path d="M3020 5810 c0 -5 9 -10 20 -10 11 0 20 5 20 10 0 6 -9 10 -20 10 -11
0 -20 -4 -20 -10z"/>
<path d="M2758 5803 c12 -2 30 -2 40 0 9 3 -1 5 -23 4 -22 0 -30 -2 -17 -4z"/>
<path d="M2590 5761 c-35 -7 -35 -7 15 -13 28 -3 79 -6 115 -6 l65 -1 -70 14
c-78 15 -77 15 -125 6z"/>
<path d="M9655 5701 l-40 -6 45 -12 c53 -14 170 -22 170 -12 0 35 -68 46 -175
30z"/>
<path d="M10340 5700 c0 -6 10 -10 22 -10 17 0 19 -3 10 -12 -7 -7 -12 -16
-12 -20 0 -10 94 -11 103 -1 12 12 -15 33 -43 33 -14 0 -30 3 -34 7 -11 11
-46 14 -46 3z"/>
<path d="M2150 5680 c-24 -15 0 -18 177 -24 171 -5 221 -15 143 -28 -107 -18
-162 -20 -222 -8 -64 12 -531 16 -562 4 -59 -23 55 -37 349 -44 27 -1 28 -2
11 -12 -25 -14 -400 -19 -690 -9 -115 4 -241 3 -281 -1 -82 -10 -125 1 -125
31 0 19 -7 20 -157 19 -87 -1 -169 1 -182 3 -13 2 -26 -2 -28 -8 -3 -7 2 -13
11 -13 9 0 16 -4 16 -9 0 -6 -18 -9 -40 -9 -46 0 -59 -7 -42 -24 8 -8 67 -14
173 -16 l160 -4 -3 -27 -3 -26 -175 -7 c-96 -3 -261 -7 -366 -7 -105 -1 -204
-6 -220 -11 -26 -8 -25 -8 21 -11 28 -1 61 -4 75 -5 14 -2 75 -6 135 -10 61
-4 115 -10 121 -15 13 -11 488 -14 505 -3 9 5 -1 12 -31 19 -29 7 -46 17 -48
28 -3 14 4 17 40 16 58 -3 170 11 185 23 22 18 183 24 571 23 244 -1 392 2
392 8 0 5 19 7 45 5 24 -3 65 -2 91 3 32 6 68 4 118 -6 40 -8 83 -15 97 -14
13 1 56 -6 94 -15 102 -23 110 -21 158 28 23 24 51 46 62 48 34 6 23 32 -17
42 -21 5 -38 13 -38 18 0 4 -14 8 -30 8 -18 0 -33 6 -36 15 -3 8 -22 19 -42
25 -46 12 -392 13 -412 0z"/>
<path d="M9938 5667 c-77 -9 -99 -22 -55 -32 90 -20 119 -25 168 -25 35 0 74
-8 100 -20 24 -11 50 -20 57 -20 19 0 14 37 -5 44 -10 3 -42 19 -72 36 -57 32
-69 33 -193 17z"/>
<path d="M9568 5648 c14 -14 52 -21 52 -9 0 5 -10 11 -22 15 -35 9 -43 7 -30
-6z"/>
<path d="M10448 5623 c-54 -6 -47 -20 15 -28 l52 -8 -40 -11 c-32 -9 -36 -13
-22 -19 10 -4 34 -7 53 -7 33 0 34 1 34 40 0 44 3 43 -92 33z"/>
<path d="M322 5578 c5 -15 118 -24 118 -10 0 15 -26 22 -77 22 -31 0 -43 -4
-41 -12z"/>
<path d="M9997 5504 c-16 -16 10 -24 76 -24 65 1 70 2 53 15 -20 15 -116 21
-129 9z"/>
<path d="M10238 5494 c-40 -12 -13 -21 77 -28 103 -7 225 1 225 15 0 5 -42 9
-92 9 -51 0 -115 2 -143 4 -27 3 -58 2 -67 0z"/>
<path d="M1213 5460 c-13 -5 -23 -16 -23 -23 0 -20 115 -31 273 -28 109 2 127
1 127 -13 0 -13 22 -16 143 -19 78 -2 151 -6 162 -10 13 -5 32 0 55 14 32 20
33 23 15 30 -11 4 -47 8 -79 8 -43 1 -62 6 -71 18 -11 15 -39 17 -241 18 -126
1 -254 5 -284 8 -30 4 -65 3 -77 -3z m65 -27 c-10 -2 -26 -2 -35 0 -10 3 -2 5
17 5 19 0 27 -2 18 -5z"/>
<path d="M6330 5432 c-8 -3 -26 -16 -39 -28 -23 -23 -23 -24 -3 -24 24 0 66
32 61 47 -2 5 -11 8 -19 5z"/>
<path d="M10038 5389 c-55 -28 -63 -29 -280 -39 -143 -6 -252 -6 -303 0 -135
16 -1025 33 -1041 19 -33 -27 0 -32 187 -26 122 5 190 3 194 -3 3 -5 -1 -10
-9 -10 -25 0 -19 -14 12 -28 63 -30 537 -35 597 -6 12 6 165 8 393 6 311 -3
372 -6 372 -18 0 -17 66 -15 -623 -19 -323 -2 -628 -6 -677 -10 -77 -6 -90
-10 -90 -25 0 -16 12 -19 108 -22 59 -3 161 0 227 5 66 5 228 6 360 3 470 -12
703 -21 711 -28 18 -19 -21 -23 -232 -26 -176 -3 -224 -6 -224 -16 0 -10 -26
-14 -102 -15 -88 -2 -105 -5 -121 -22 -17 -19 -27 -20 -130 -14 -293 16 -686
4 -700 -21 -10 -17 -162 -20 -172 -4 -4 6 4 19 16 29 31 25 18 38 -48 44 -32
4 -80 11 -108 16 -110 21 -136 23 -189 17 -65 -9 -73 -27 -26 -54 17 -10 28
-23 25 -30 -4 -10 1 -11 18 -6 31 10 119 5 135 -8 17 -14 -2 -28 -39 -28 -14
0 -33 -6 -44 -13 -17 -13 -15 -16 24 -37 22 -13 36 -27 31 -30 -11 -7 36 -73
67 -97 33 -25 67 -8 69 34 l1 28 113 3 c86 2 123 -1 154 -13 78 -32 451 -30
463 2 3 8 0 19 -8 23 -29 19 9 25 149 24 121 0 162 -4 232 -24 47 -12 92 -22
100 -22 42 3 200 -11 200 -18 0 -14 -262 -18 -305 -5 -22 7 -62 15 -89 18 -27
3 -52 10 -56 17 -5 8 -13 9 -21 4 -8 -4 -34 -8 -59 -9 -41 0 -45 -2 -45 -25 0
-17 7 -26 25 -31 21 -5 19 -7 -20 -13 -25 -4 -81 -7 -125 -7 -192 2 -331 -5
-360 -17 -18 -8 -46 -11 -70 -8 -94 14 -275 18 -275 7 0 -6 4 -11 9 -11 5 0
11 -10 15 -23 3 -12 25 -45 49 -73 24 -29 49 -66 57 -83 7 -19 22 -34 36 -37
14 -4 28 -14 34 -23 7 -13 13 -14 28 -4 14 8 57 9 168 1 109 -7 185 -6 282 3
101 9 136 9 144 1 18 -18 56 -15 117 8 44 17 87 22 237 27 167 6 184 5 184
-10 0 -13 -9 -17 -36 -17 -51 0 -74 -15 -74 -50 l0 -30 318 0 c256 -1 322 -3
342 -15 14 -8 37 -14 52 -15 31 0 58 -9 58 -20 0 -4 -77 -9 -171 -12 -93 -3
-173 -9 -177 -12 -14 -15 25 -24 156 -35 210 -18 236 -21 252 -32 10 -7 -10
-8 -65 -5 -134 7 -319 27 -340 36 -11 5 -58 11 -105 15 -47 3 -110 10 -140 15
-30 5 -94 15 -143 21 -48 6 -90 15 -93 20 -3 5 -27 9 -54 9 -31 0 -54 6 -65
16 -10 11 -49 19 -123 27 -60 6 -114 16 -123 24 -13 11 -55 11 -240 2 -123 -5
-251 -9 -284 -7 -55 3 -60 1 -63 -18 -2 -16 9 -30 45 -55 62 -42 130 -49 187
-20 31 16 42 18 48 8 12 -18 10 -27 -7 -33 -8 -4 -15 -12 -15 -19 0 -16 -33
-45 -52 -45 -27 0 -39 -24 -19 -37 9 -6 23 -29 30 -52 8 -28 23 -48 45 -63 30
-20 49 -43 84 -104 7 -12 28 -36 47 -52 19 -17 37 -42 41 -56 6 -27 22 -43 58
-61 11 -6 22 -19 24 -30 2 -11 18 -30 37 -43 19 -12 35 -28 35 -36 0 -7 24
-37 53 -67 29 -30 60 -69 67 -86 17 -38 40 -51 40 -23 0 16 7 20 33 20 20 0
39 8 50 20 21 24 66 26 109 4 31 -16 72 -16 168 2 42 7 76 -16 86 -59 5 -22 3
-26 -10 -21 -28 11 -64 -4 -68 -28 -3 -22 -69 -67 -100 -68 -10 0 -18 -6 -18
-13 0 -10 53 -12 271 -9 175 3 270 1 266 -5 -4 -6 -75 -13 -159 -16 -177 -8
-248 -16 -248 -28 0 -5 7 -9 16 -9 10 0 14 -7 12 -22 -2 -19 -10 -23 -40 -25
-21 -1 -47 -7 -58 -13 -14 -7 -26 -8 -39 0 -26 14 -31 13 -31 -5 0 -9 7 -18
15 -21 8 -4 13 -10 10 -15 -8 -13 25 -26 83 -32 43 -5 54 -3 59 10 4 9 -1 19
-12 26 -17 9 -16 11 6 23 13 7 45 13 71 14 26 0 57 4 70 9 19 7 99 13 348 24
8 0 58 -2 110 -6 l95 -7 -28 25 c-15 14 -39 25 -52 25 -13 0 -26 4 -29 9 -3 5
-18 12 -33 16 -16 3 -39 14 -53 23 l-25 16 25 6 c14 3 54 0 90 -7 36 -7 80
-12 98 -13 31 0 32 1 32 45 0 44 -1 45 -33 45 -17 0 -48 5 -67 11 -21 6 -136
10 -293 10 -175 -1 -258 2 -255 9 2 7 91 12 251 13 199 3 250 6 257 17 5 9 33
16 74 18 l66 4 0 251 0 250 -167 -6 c-93 -3 -188 -3 -213 2 -35 6 -9 9 115 14
216 10 265 16 265 31 0 10 -48 15 -202 20 -111 4 -209 11 -218 15 -30 16 -429
28 -684 22 -42 -2 -71 4 -136 25 -13 5 -12 7 3 18 20 15 317 13 496 -4 135
-13 298 -13 306 0 15 24 174 -1 183 -28 2 -7 -9 -13 -30 -13 -38 -2 33 -14
145 -25 59 -6 67 -5 61 9 -3 10 -21 17 -47 20 -23 2 -5 4 41 5 l82 2 0 129 0
129 -30 6 c-16 3 -30 10 -30 15 0 4 14 11 30 15 28 5 30 8 30 51 l0 45 -42 0
c-24 0 -73 3 -110 7 -57 5 -68 9 -68 24 0 14 14 22 53 34 42 12 149 35 163 35
2 0 4 95 4 210 l0 210 -132 0 c-73 0 -171 3 -218 7 -77 6 -81 8 -45 15 72 14
315 21 315 9 0 -6 11 -11 24 -11 46 0 56 10 56 56 0 39 -3 44 -27 50 -48 10
-49 12 -10 13 36 1 37 2 37 37 l0 37 -209 -5 c-115 -3 -216 -1 -223 3 -7 4
-38 -6 -70 -22z m-658 -72 c0 -10 -26 -12 -122 -9 -169 6 -176 22 -10 22 102
0 132 -3 132 -13z m722 -205 c63 -4 112 -12 120 -19 6 -7 37 -13 67 -13 31 0
62 -4 70 -9 8 -6 -34 -12 -113 -16 -84 -5 -130 -4 -139 3 -7 6 -82 14 -167 17
-190 8 -200 9 -200 36 0 21 3 21 128 15 70 -3 175 -10 234 -14z m-1229 -59
c-13 -2 -35 -2 -50 0 -16 2 -5 4 22 4 28 0 40 -2 28 -4z m247 -93 c0 -5 -16
-10 -35 -10 -19 0 -35 5 -35 10 0 6 16 10 35 10 19 0 35 -4 35 -10z m-100 -9
c0 -4 -53 -11 -118 -15 -118 -7 -167 -2 -140 15 17 11 258 12 258 0z m113
-154 c15 -10 16 -15 4 -31 -11 -15 -21 -17 -55 -11 -46 7 -54 24 -19 41 31 16
50 16 70 1z m1125 -194 c59 -4 82 -10 82 -19 0 -9 -12 -14 -33 -14 -19 0 -67
-3 -108 -6 -56 -4 -79 -2 -93 9 -10 7 -16 19 -12 25 8 14 45 15 164 5z m-865
-130 c-7 -2 -19 -2 -25 0 -7 3 -2 5 12 5 14 0 19 -2 13 -5z m180 -40 c-7 -2
-21 -2 -30 0 -10 3 -4 5 12 5 17 0 24 -2 18 -5z"/>
<path d="M1095 5400 c-3 -5 3 -10 14 -10 12 0 21 5 21 10 0 6 -6 10 -14 10 -8
0 -18 -4 -21 -10z"/>
<path d="M252 5353 c-20 -8 -3 -23 28 -23 36 0 47 16 17 24 -25 6 -27 6 -45
-1z"/>
<path d="M4580 5300 c0 -5 5 -10 10 -10 6 0 10 5 10 10 0 6 -4 10 -10 10 -5 0
-10 -4 -10 -10z"/>
<path d="M7990 5304 c0 -3 5 -14 10 -25 11 -19 35 -24 64 -13 27 11 -4 44 -41
44 -18 0 -33 -3 -33 -6z"/>
<path d="M8180 5285 c0 -11 13 -15 53 -15 29 0 57 4 63 9 5 6 29 11 54 14 25
2 -3 4 -62 5 -90 2 -108 0 -108 -13z"/>
<path d="M615 5276 c-20 -14 -19 -15 8 -25 16 -6 98 -11 188 -11 135 0 161 2
166 15 3 9 4 17 2 19 -2 2 -80 6 -174 10 -142 6 -173 4 -190 -8z"/>
<path d="M2040 5277 c-63 -5 -221 -10 -350 -11 -252 -1 -257 -2 -210 -50 18
-18 25 -19 127 -8 178 20 287 11 300 -25 3 -7 27 -24 55 -38 l49 -25 25 25
c13 13 24 28 24 33 0 20 41 20 60 0 21 -23 49 -21 113 6 26 10 37 22 42 45 4
19 13 31 23 32 23 1 -43 16 -98 21 -25 3 -97 0 -160 -5z"/>
<path d="M428 5239 c-26 -14 -22 -29 7 -29 18 0 25 5 25 20 0 22 -7 24 -32 9z"/>
<path d="M8405 5220 c11 -5 33 -9 48 -9 15 -1 38 -7 50 -15 18 -12 32 -13 72
-4 l50 11 -35 13 c-39 14 -218 18 -185 4z"/>
<path d="M250 5184 c-23 -13 -19 -14 49 -12 49 2 76 7 79 16 5 17 -96 14 -128
-4z"/>
<path d="M9285 5180 c-148 -3 -278 -9 -287 -13 -9 -5 -25 -4 -35 1 -11 6 -47
5 -98 -3 -62 -9 -75 -13 -57 -19 13 -4 56 -6 95 -4 40 1 155 -1 257 -5 150 -7
205 -6 289 7 58 9 141 16 185 16 46 0 76 4 71 9 -15 13 -128 16 -420 11z"/>
<path d="M40 5160 c-11 -7 1 -10 40 -9 40 0 49 3 35 9 -27 12 -57 12 -75 0z"/>
<path d="M8540 5161 c0 -7 22 -11 52 -11 62 0 60 5 -4 14 -32 5 -48 4 -48 -3z"/>
<path d="M950 5126 c-30 -7 -49 -15 -43 -19 7 -4 85 -12 175 -17 90 -6 273
-18 408 -26 195 -13 260 -14 319 -5 41 6 78 14 83 17 9 6 -13 22 -58 43 -34
15 -818 22 -884 7z"/>
<path d="M2060 5110 c0 -5 9 -10 20 -10 11 0 20 5 20 10 0 6 -9 10 -20 10 -11
0 -20 -4 -20 -10z"/>
<path d="M2291 5096 c-38 -12 -108 -76 -130 -118 -13 -25 -12 -28 13 -51 34
-31 169 -70 217 -61 97 17 169 66 169 116 0 30 -24 98 -35 98 -4 0 -15 -5 -26
-11 -16 -8 -25 -7 -38 5 -32 29 -45 11 -15 -19 12 -11 13 -20 6 -27 -12 -12
-139 -13 -171 -1 l-24 10 23 21 c18 16 36 22 73 22 43 0 48 2 37 15 -14 17
-49 17 -99 1z"/>
<path d="M1963 5037 c-4 -8 -16 -16 -25 -20 -31 -11 -20 -28 17 -24 36 4 78
33 69 48 -8 14 -52 11 -61 -4z"/>
<path d="M0 4931 l0 -111 54 0 c39 0 60 6 80 21 33 26 163 44 215 29 28 -8 37
-6 47 8 8 9 14 20 14 25 0 4 -36 7 -80 7 -82 0 -103 12 -54 30 14 6 41 10 60
10 23 0 38 6 46 20 19 30 78 27 109 -6 l24 -26 130 6 c72 4 147 12 168 18 l39
12 -44 14 c-23 7 -119 20 -211 27 -138 11 -176 11 -205 1 -30 -11 -44 -11 -72
-1 -20 7 -100 16 -178 20 l-142 7 0 -111z"/>
<path d="M1091 4974 c-21 -27 -21 -29 -5 -41 18 -13 198 -21 364 -16 156 5
431 22 440 28 7 4 7 12 1 23 -8 14 -27 17 -113 17 -57 0 -229 4 -384 9 l-280
9 -23 -29z"/>
<path d="M617 4864 c-10 -11 3 -24 24 -24 23 0 25 15 3 24 -19 7 -19 7 -27 0z"/>
<path d="M379 4841 c-11 -13 -13 -24 -7 -40 7 -19 13 -22 35 -16 15 3 62 10
106 15 44 5 81 11 83 12 1 2 -4 11 -11 22 -11 14 -21 17 -47 11 -48 -10 -109
-8 -121 4 -14 14 -19 13 -38 -8z"/>
<path d="M947 4803 c-28 -7 -165 -80 -194 -103 -31 -24 -81 -24 -159 0 -48 16
-89 7 -104 -20 -10 -19 -7 -20 52 -20 77 0 94 -8 74 -35 -16 -22 -41 -23 -188
-7 -76 8 -124 8 -164 1 -45 -8 -65 -7 -102 5 -73 25 -109 21 -131 -14 -10 -16
-21 -27 -24 -23 -4 3 -7 -1 -7 -10 0 -25 45 -31 131 -17 42 6 95 9 117 5 37
-6 40 -9 33 -28 -13 -36 -52 -47 -170 -50 -75 -1 -111 -6 -111 -13 0 -17 24
-21 131 -23 97 -2 116 -9 106 -35 -4 -11 -19 -16 -45 -16 -31 0 -42 -6 -61
-31 -22 -30 -26 -31 -77 -26 l-54 6 0 -78 c0 -64 3 -81 19 -95 11 -10 21 -28
23 -40 3 -20 8 -21 98 -20 52 0 132 5 178 9 67 6 85 5 100 -7 9 -9 31 -22 47
-31 28 -14 33 -14 68 6 20 11 37 26 37 33 0 8 9 18 20 24 11 6 20 19 20 30 0
14 11 20 53 28 l52 10 -80 1 c-126 2 -302 19 -325 31 -30 16 -27 58 6 66 15 4
117 5 228 2 182 -5 206 -7 244 -27 38 -19 53 -21 115 -15 48 4 76 12 85 22 8
11 36 18 81 23 77 7 186 53 186 79 0 12 -16 15 -80 15 -61 0 -94 6 -137 24
-32 13 -58 27 -58 31 0 4 12 11 26 14 18 5 32 2 46 -11 17 -15 38 -18 132 -17
124 1 179 14 217 53 40 41 90 81 101 81 6 0 7 11 4 24 -5 22 -2 25 25 28 39 4
62 33 39 49 -8 5 -34 8 -57 5 -72 -9 -195 11 -215 34 -26 32 -109 47 -193 35
-31 -5 -50 -1 -88 19 -26 14 -49 25 -50 25 -1 -1 -10 -3 -20 -6z m-380 -409
c-3 -3 -12 -4 -19 -1 -8 3 -5 6 6 6 11 1 17 -2 13 -5z m-340 -110 c-3 -3 -12
-4 -19 -1 -8 3 -5 6 6 6 11 1 17 -2 13 -5z"/>
<path d="M160 4791 c-12 -9 -12 -11 2 -16 24 -9 103 -2 103 10 0 13 -86 18
-105 6z"/>
<path d="M8121 4771 c-31 -20 -40 -33 -44 -61 -5 -45 -1 -55 29 -68 31 -15 31
-32 0 -32 -34 0 -56 -10 -56 -25 0 -9 11 -13 30 -13 34 1 51 -9 33 -20 -7 -4
-10 -17 -7 -29 8 -30 84 -57 137 -49 23 4 64 9 90 12 101 11 147 51 147 128 0
31 -3 36 -23 36 -13 0 -33 11 -44 24 -19 21 -19 25 -6 31 24 9 -38 69 -87 84
-64 19 -154 11 -199 -18z m203 -37 c20 -20 20 -34 1 -34 -9 0 -27 -7 -40 -16
-44 -29 -149 6 -117 38 26 26 134 34 156 12z"/>
<path d="M1608 4718 c9 -9 15 -9 24 0 9 9 7 12 -12 12 -19 0 -21 -3 -12 -12z"/>
<path d="M10143 4283 c15 -2 37 -2 50 0 12 2 0 4 -28 4 -27 0 -38 -2 -22 -4z"/>
<path d="M640 4150 c0 -5 16 -10 35 -10 19 0 35 5 35 10 0 6 -16 10 -35 10
-19 0 -35 -4 -35 -10z"/>
<path d="M0 3733 l0 -248 68 1 c50 0 73 5 88 18 10 9 42 38 69 63 28 25 59 49
70 54 11 5 40 25 65 44 25 20 53 38 63 41 9 4 17 12 17 20 0 7 9 18 19 24 11
5 21 20 23 32 2 15 14 24 43 32 31 9 44 20 57 47 9 19 23 41 32 48 21 17 20
26 -1 28 -10 0 -41 4 -69 8 -51 7 -52 7 -47 -18 4 -21 -1 -28 -25 -41 -37 -19
-65 -20 -92 -4 -16 10 -23 9 -43 -10 -34 -32 -80 -44 -167 -42 -41 0 -75 2
-77 3 -1 2 5 20 14 40 18 38 47 51 103 46 48 -4 58 0 53 21 -6 21 -24 25 -175
35 l-88 6 0 -248z m100 76 c0 -12 -37 -12 -44 0 -3 4 -3 11 0 14 8 7 44 -4 44
-14z"/>
<path d="M660 3965 c-6 -8 -10 -22 -8 -31 4 -23 28 -30 28 -10 0 9 12 21 27
27 22 8 24 12 13 19 -22 14 -46 12 -60 -5z"/>
<path d="M9470 3609 c0 -5 5 -7 10 -4 6 3 10 8 10 11 0 2 -4 4 -10 4 -5 0 -10
-5 -10 -11z"/>
<path d="M9538 3468 c9 -9 15 -9 24 0 9 9 7 12 -12 12 -19 0 -21 -3 -12 -12z"/>
<path d="M0 3400 c0 -5 4 -10 9 -10 6 0 13 5 16 10 3 6 -1 10 -9 10 -9 0 -16
-4 -16 -10z"/>
<path d="M10510 3405 c-8 -2 -103 -9 -210 -16 -107 -7 -212 -18 -234 -26 -21
-7 -53 -13 -70 -13 -45 0 -63 -14 -47 -34 8 -9 19 -16 27 -16 7 0 16 -9 19
-20 3 -11 13 -20 21 -20 22 0 16 -17 -8 -24 -17 -4 -28 1 -40 17 -15 20 -20
21 -49 10 -29 -11 -38 -10 -71 7 -31 16 -42 18 -63 8 -30 -14 -32 -29 -5 -46
11 -7 20 -22 20 -35 0 -29 8 -39 54 -76 26 -21 50 -31 72 -31 38 0 52 -14 28
-28 -22 -12 -6 -63 24 -77 18 -8 30 -28 36 -60 1 -5 9 -26 18 -46 8 -20 19
-46 23 -58 4 -15 12 -20 24 -16 21 6 74 -45 54 -52 -22 -8 -14 -32 14 -50 44
-28 68 -56 65 -74 -2 -10 2 -20 8 -24 5 -3 10 -14 10 -24 0 -19 47 -57 58 -47
9 10 41 -25 36 -38 -9 -22 15 -66 41 -76 15 -6 23 -15 19 -24 -7 -19 43 -94
68 -102 10 -3 23 -17 29 -31 6 -17 14 -23 25 -19 9 3 20 6 25 6 5 0 9 93 9
220 0 213 -1 220 -20 220 -11 0 -20 5 -20 11 0 6 9 8 20 4 20 -6 20 -2 20 229
l0 236 -29 0 c-16 0 -45 7 -66 15 -31 14 -35 18 -24 31 12 15 46 14 102 -2 14
-4 17 1 17 34 0 23 -5 43 -12 45 -10 4 -10 6 0 6 8 1 12 19 12 56 0 30 -3 54
-7 54 -5 -1 -15 -3 -23 -4z m-50 -85 c0 -5 -6 -10 -14 -10 -8 0 -18 5 -21 10
-3 6 3 10 14 10 12 0 21 -4 21 -10z m-313 -62 c42 -15 43 -29 1 -22 -50 9 -60
13 -53 24 8 13 11 13 52 -2z m-91 -40 c-1 -13 -9 -26 -19 -30 -28 -12 -138 3
-144 19 -8 22 -2 22 62 7 79 -18 85 -18 85 6 0 11 4 20 8 20 5 0 8 -10 8 -22z
m314 -18 c3 0 -6 -7 -20 -15 -28 -16 -88 -19 -109 -6 -30 19 58 33 129 21z
m-157 -17 c-7 -2 -19 -2 -25 0 -7 3 -2 5 12 5 14 0 19 -2 13 -5z m-78 -123 c4
-6 15 -8 25 -5 11 4 38 -4 65 -19 25 -15 55 -26 65 -26 11 0 20 -4 20 -10 0
-12 -37 -13 -44 -1 -3 4 -29 9 -58 9 -68 1 -132 22 -136 45 -3 13 3 17 27 17
16 0 33 -5 36 -10z m-25 -129 c0 -14 -18 -23 -30 -16 -6 4 -8 11 -5 16 8 12
35 12 35 0z"/>
<path d="M9890 3291 c0 -5 7 -11 15 -15 8 -3 15 -1 15 3 0 5 -7 11 -15 15 -8
3 -15 1 -15 -3z"/>
<path d="M590 2960 c0 -5 9 -10 20 -10 11 0 20 5 20 10 0 6 -9 10 -20 10 -11
0 -20 -4 -20 -10z"/>
<path d="M4789 526 c-2 -2 -37 -6 -76 -8 -49 -3 -79 -10 -91 -21 -10 -9 -27
-17 -36 -17 -10 0 -34 -16 -53 -35 -19 -19 -39 -35 -44 -35 -16 0 -9 -19 10
-30 38 -20 95 -6 61 15 -20 12 -9 23 33 34 84 24 113 30 167 36 30 3 84 10
119 15 53 7 70 6 105 -9 22 -10 56 -24 75 -32 18 -7 47 -23 62 -37 42 -34 38
-3 -4 34 -41 38 -90 63 -139 71 -21 3 -41 10 -44 14 -5 9 -137 13 -145 5z"/>
<path d="M9650 15 c0 -8 9 -15 20 -15 11 0 20 7 20 15 0 8 -9 15 -20 15 -11 0
-20 -7 -20 -15z"/>
</g>
</svg>
